<svg xmlns="http://www.w3.org/2000/svg" viewBox="0 0 500 500"><g id="freepik--background-complete--inject-5"><path d="M59.52,400.92a20.47,20.47,0,0,0-12.72-1.55c-2.31.38-4.71,1.07-6.28,2.8s-1.87,4.79-.07,6.28a6.05,6.05,0,0,0,4,1c3.36,0,7.09-.63,9.77,1.39,1.54,1.16,2.56,3.08,4.39,3.64a4.32,4.32,0,0,0,4.76-2.12,7.36,7.36,0,0,0,.54-5.46A8.31,8.31,0,0,0,59.52,400.92Z" style="fill:#ebebeb"></path><path d="M68.38,383.81c-2.36,3.37-7,2.26-9.09.19s-3-5.05-3.85-7.9c-1.88-6.51-3.77-13.34-2.37-20a11,11,0,0,1,2.55-5.43,5.78,5.78,0,0,1,5.49-1.83c2.32.61,3.76,2.88,4.8,5a47.74,47.74,0,0,1,4.71,20.44c0,3.29-.38,6.74-2.24,9.46" style="fill:#ebebeb"></path><path d="M74.88,388.65c-2.57-3-3.06-7.49-1.92-11.31a21.89,21.89,0,0,1,6.7-9.72,36.07,36.07,0,0,1,12-7.08,12.74,12.74,0,0,1,5.4-.91,5.66,5.66,0,0,1,4.53,2.74c1.26,2.4,0,5.33-1.26,7.71a91.54,91.54,0,0,1-7.88,12c-2.36,3-5.07,6.05-8.67,7.42s-7.34,1.22-9.25-1.28" style="fill:#ebebeb"></path><path d="M68.54,434.77a8.39,8.39,0,0,1-.21-1.54c-.11-1.11-.25-2.52-.41-4.19A58.81,58.81,0,0,0,67,422.9a46.52,46.52,0,0,0-2.24-7.25,26.53,26.53,0,0,0-3.7-6.57,14,14,0,0,0-4.68-3.89A13.26,13.26,0,0,0,52.42,404a6.89,6.89,0,0,1-1.53-.22,7.43,7.43,0,0,1,1.55,0,11.79,11.79,0,0,1,4.11,1.07,13.78,13.78,0,0,1,4.94,3.92,26,26,0,0,1,3.84,6.7,44.5,44.5,0,0,1,2.22,7.37,53.25,53.25,0,0,1,.82,6.22c.13,1.78.18,3.22.2,4.22A6.26,6.26,0,0,1,68.54,434.77Z" style="fill:#e0e0e0"></path><path d="M68.25,431.55a3.78,3.78,0,0,1,0-.72c0-.53,0-1.21,0-2,0-1.77,0-4.33-.09-7.49-.16-6.32-.7-13.12-1.75-22.7-1-9-2.33-19.51-3.74-26.33q-.47-2.32-.9-4.17c-.27-1.22-.5-2.28-.73-3.13s-.35-1.46-.47-2a2.85,2.85,0,0,1-.13-.71,3.2,3.2,0,0,1,.25.67c.15.52.35,1.16.59,2s.53,1.9.84,3.12.65,2.61,1,4.16A229.29,229.29,0,0,1,67,396.62c1,9.6,1.52,18.35,1.56,24.68,0,3.17,0,5.73-.11,7.5,0,.83-.09,1.5-.12,2A2.76,2.76,0,0,1,68.25,431.55Z" style="fill:#e0e0e0"></path><path d="M68.21,414.68a13.38,13.38,0,0,1,0-2.13,55,55,0,0,1,.65-5.77,78.23,78.23,0,0,1,1.87-8.4,69.67,69.67,0,0,1,3.51-9.94,53.14,53.14,0,0,1,10.32-16.06A25.28,25.28,0,0,1,87,370.13c.37-.32.7-.63,1-.88l.94-.65a15.32,15.32,0,0,1,1.8-1.15,65.37,65.37,0,0,0-5.88,5.24,55.76,55.76,0,0,0-10.05,16,79.25,79.25,0,0,0-3.54,9.84,85.38,85.38,0,0,0-2,8.32c-.44,2.4-.69,4.35-.85,5.71A13.62,13.62,0,0,1,68.21,414.68Z" style="fill:#e0e0e0"></path><polygon points="84.52 444.43 82.83 467.59 53.08 467.59 51.38 444.43 84.52 444.43" style="fill:#e0e0e0"></polygon><rect x="47.83" y="435.31" width="39.56" height="9.13" style="fill:#e0e0e0"></rect><polygon points="87.39 466.71 87.39 469.24 85.53 469.24 48.49 469.24 48.49 466.71 87.39 466.71" style="fill:#ebebeb"></polygon><polygon points="83.71 473.69 85.53 469.24 49.91 469.24 52.03 473.69 83.71 473.69" style="fill:#e0e0e0"></polygon><path d="M51.94,452s0,.08.14.21.26.36.44.59c.42.55,1,1.29,1.73,2.22l.08.1.08-.1c1.08-1.51,2.54-3.52,4.25-5.89h-.24l4.19,5.93.13.19.15-.17,5-5.92h-.29l.28.34,4.44,5.57.15.19.14-.19,4.19-5.94h-.24L81.69,455l.1.1.07-.11,1.61-2.72.42-.73a.92.92,0,0,0,.12-.25,1.56,1.56,0,0,0-.17.23l-.46.69c-.41.65-1,1.55-1.7,2.67h.17l-5.09-6-.13-.15-.11.16-4.23,5.91h.28l-4.43-5.58-.28-.34-.14-.18-.14.17-5,5.93h.28L58.66,449l-.12-.17-.12.17-4.17,6h.15l-1.8-2.16-.48-.56Z" style="fill:#f5f5f5"></path><path d="M51,444.28c0,.1,7.46.19,16.65.19s16.65-.09,16.65-.19-7.45-.18-16.65-.18S51,444.18,51,444.28Z" style="fill:#f5f5f5"></path><path d="M49.47,469.49c0,.1,8.1.18,18.09.18s18.1-.08,18.1-.18-8.1-.19-18.1-.19S49.47,469.38,49.47,469.49Z" style="fill:#f5f5f5"></path><path d="M390.41,381.47a32.79,32.79,0,0,0-14.05-4.83c-2.29-.24-4.8-.17-6.64,1.22a1.38,1.38,0,0,0-.69,1.21,1.52,1.52,0,0,0,.65.83,20.09,20.09,0,0,0,20.73,1.57" style="fill:#e0e0e0"></path><path d="M390.05,381.07a68.26,68.26,0,0,1-9.07-8,22.86,22.86,0,0,1-5.69-10.52,4.25,4.25,0,0,1,.45-3.52c7.23,5.64,12.92,12.95,14.31,22" style="fill:#e0e0e0"></path><path d="M390.34,381.42a32.92,32.92,0,0,1,.17-11.92,16.08,16.08,0,0,1,6.35-9.83c1.25,2.92.71,6.29-.17,9.34a45.35,45.35,0,0,1-6.3,13.25" style="fill:#e0e0e0"></path><path d="M397.43,394.12c-4.3.53-8.05,2.8-11.27,5.71a21.28,21.28,0,0,0-6.44,11.06c4.22-.26,7.8-3.24,10.4-6.58s4.4-7,7.25-10.12" style="fill:#e0e0e0"></path><path d="M399,396.16a27.79,27.79,0,0,1,3.21-26.29c2.45,8.72,1.55,18.58-3.21,26.29" style="fill:#e0e0e0"></path><path d="M408.34,407.31a20.08,20.08,0,0,0-19.21,11.06c-.24.48-.45,1.09-.13,1.51a1.42,1.42,0,0,0,1.27.38c3.79-.25,7.14-2.53,9.91-5.12s5.19-5.59,8.25-7.84" style="fill:#e0e0e0"></path><path d="M408,406.71a35.81,35.81,0,0,1-.35-20c.7-2.57,1.88-5.28,4.26-6.48a.81.81,0,0,1,.65-.12.87.87,0,0,1,.42.48,12.06,12.06,0,0,1,1,5.73,34.74,34.74,0,0,1-.9,5.81c-.74,3.55-1.14,7.36-3.09,10.42a22,22,0,0,0-1.24,2.29c-.37.78-.37,1.05-.71,1.67" style="fill:#e0e0e0"></path><path d="M432.85,410.4c-1.84-7,.11-15.46,4.51-21.19.33-.42.76-.88,1.29-.83.81.08,1,1.16,1,2a38.37,38.37,0,0,1-6.78,20" style="fill:#e0e0e0"></path><path d="M435.08,411.93a30.82,30.82,0,0,0,25.3-5.15,20.54,20.54,0,0,0-13.7-1.68c-4.57,1-8.75,3.1-11.6,6.83" style="fill:#e0e0e0"></path><path d="M437,407.28c4.75-7.76,13.87-12.82,23-13.28-1.05,3.69-4.09,6.57-7.51,8.3s-7.25,2.49-11,3.23c-1.47.28-3.48.59-4.43,1.75" style="fill:#e0e0e0"></path><path d="M433.32,384.69a66.25,66.25,0,0,0,2.93-13.44,22.38,22.38,0,0,0-2.67-13.3c-4.45,8.59-4.9,18.64-.4,27.2" style="fill:#e0e0e0"></path><path d="M448.28,377.13c5.19-9.44,15.79-17,26.52-18-4.14,10.3-15.42,18.26-26.52,18" style="fill:#e0e0e0"></path><path d="M445,379c7.75,1.18,14.35,6.13,21.59,9.13a9.78,9.78,0,0,0,4.88.94,3.82,3.82,0,0,0,2.39-6.76,10.27,10.27,0,0,0-3.54-2.15c-7.89-3.29-16.35-3.37-24.66-1.38" style="fill:#e0e0e0"></path><path d="M440.52,384.42c1.76.5,2.36,1.41,3.75,2.59a40.35,40.35,0,0,0,16.37,8.41c.62.16,1.44.22,1.75-.35s-.07-1.09-.42-1.53a22.6,22.6,0,0,0-9.88-6.71c-3.78-1.41-7.06-3.1-11.57-2.74" style="fill:#e0e0e0"></path><path d="M435.46,351.59a31,31,0,0,0,23.76,8.09,1.64,1.64,0,0,0,1.08-.39c.6-.65-.12-1.66-.82-2.2-7-5.44-15.44-7.7-24-5.5" style="fill:#e0e0e0"></path><path d="M441.46,349.4a33.11,33.11,0,0,1,29.64-4.89,23.49,23.49,0,0,1-14.12,6.2,44.92,44.92,0,0,1-15.52-1.31" style="fill:#e0e0e0"></path><path d="M439.08,334.32c-.69-7-.24-12.48-.73-19.48,0-.56-.16-1.23-.68-1.43-.73-.29-1.34.61-1.57,1.35a22.29,22.29,0,0,0,3,19.4" style="fill:#e0e0e0"></path><path d="M438.58,335.09a40.85,40.85,0,0,0,11.54-11.23c2.28-3.12,4.21-6.86,3.69-10.69a11.08,11.08,0,0,0-8.33,4.14,23.39,23.39,0,0,0-4.25,8.54c-.92,3.07-1.57,6.22-2.65,9.24" style="fill:#e0e0e0"></path><path d="M449.92,331.94a93.13,93.13,0,0,0,28.42-16.76c-3.39-1.37-7.28-.55-10.67.82a33.67,33.67,0,0,0-17.9,15.86" style="fill:#e0e0e0"></path><path d="M441.77,338.9c5.24.57,10.57,1,15.78.08s9.95-2.89,14.73-4.9a1.68,1.68,0,0,0,1-.76,1.15,1.15,0,0,0-.36-1.26,3.18,3.18,0,0,0-1.26-.59c-5.19-1.45-10.8-.77-15.92,1a73.75,73.75,0,0,0-14,6.47" style="fill:#e0e0e0"></path><path d="M411.81,351.83c-3.58-7.22-3.34-15.65-.25-23.1,2.17,3.32,2.44,7.54,2,11.49s-1.6,8-1.68,12" style="fill:#e0e0e0"></path><path d="M397.51,344.62a32.24,32.24,0,0,0-23.94,10.2,22.39,22.39,0,0,0,13.11-2.43,66.78,66.78,0,0,0,11.24-7.52" style="fill:#e0e0e0"></path><path d="M387.9,341.41c-4.37-.36-8.58-.9-12.78.39a15.33,15.33,0,0,0-9.74,8.26,23.18,23.18,0,0,0,12-2.26,68.66,68.66,0,0,0,10.54-6.39" style="fill:#e0e0e0"></path><path d="M402.13,341.55c-3.93-2.57-8-5.2-12.55-6.26s-9.88-.28-13.07,3.17c3.7,2.17,8.2,2.43,12.5,2.43s9.56-.05,13.62,1.38" style="fill:#e0e0e0"></path><path d="M402.16,341.76c-6.73-6.6-9.27-18.46-6.57-27.49a42,42,0,0,1,6.57,27.49" style="fill:#e0e0e0"></path><path d="M420.64,323.06c1.27-2.95,2.16-6.05,3.3-9.05a26,26,0,0,1,4.7-8.33,12.42,12.42,0,0,1,8.33-4.32,33.54,33.54,0,0,1-16.16,21.74" style="fill:#e0e0e0"></path><path d="M417.3,327c-2.1-2.88-4.52-6.81-7.37-9s-6.55-3.46-10-2.63A23.33,23.33,0,0,0,417.3,327" style="fill:#e0e0e0"></path><path d="M418,323.3a50,50,0,0,1-3.32-10.74,16.81,16.81,0,0,1,1.68-10.93c3.69,7,4.88,14.47,1.83,21.75" style="fill:#e0e0e0"></path><path d="M420.68,301.63c2.09-6.91,8.42-12,15.26-14.34a5.59,5.59,0,0,1,2.67-.4,2.33,2.33,0,0,1,2,1.64c.25,1.18-.73,2.23-1.64,3a51.91,51.91,0,0,1-18.27,10.08" style="fill:#e0e0e0"></path><path d="M420.75,296c.27-4.46.55-9,2-13.21s4.24-8.19,8.31-10c.69,4.51-1.29,9-3.69,12.86s-5.29,7.53-6.73,11.86" style="fill:#e0e0e0"></path><path d="M420.64,299.05c-1.72-5-1.9-11.45-4.92-15.84-2.11-3.07-5.49-5.16-7.31-8.41a12.85,12.85,0,0,0,.43,9.55,27.6,27.6,0,0,0,5.58,8c2.24,2.39,4.15,4.18,6.22,6.71" style="fill:#e0e0e0"></path><path d="M420.68,447.48c-.14,0-.25-33.63-.26-75.09s.09-75.1.22-75.1.26,33.62.26,75.1S420.81,447.48,420.68,447.48Z" style="fill:#e0e0e0"></path><path d="M450.06,346.76a7.13,7.13,0,0,1-1.26.47l-3.48,1.18c-2.94,1-7,2.44-11.34,4.24S425.57,356,423.24,358a7.92,7.92,0,0,0-2.16,2.85c-.33.79-.39,1.28-.44,1.27a1.24,1.24,0,0,1,0-.36,5.82,5.82,0,0,1,.25-1,7.6,7.6,0,0,1,2.1-3,19.1,19.1,0,0,1,4.66-2.89c1.87-.87,3.93-1.78,6.13-2.68,4.38-1.8,8.44-3.2,11.41-4.12,1.48-.46,2.69-.8,3.53-1A7.11,7.11,0,0,1,450.06,346.76Z" style="fill:#e0e0e0"></path><path d="M459.69,323.1s-.11.15-.35.38l-1.08,1-4,3.66-13.41,11.94c-5.23,4.66-9.75,9.11-12.88,12.46-1.57,1.67-2.81,3.06-3.65,4l-1,1.11a2.22,2.22,0,0,1-.36.37,2.41,2.41,0,0,1,.29-.43c.2-.27.5-.67.9-1.17.8-1,2-2.43,3.54-4.14a169.55,169.55,0,0,1,12.82-12.59c5.25-4.65,10-8.82,13.5-11.83l4.13-3.55,1.14-.94A3.07,3.07,0,0,1,459.69,323.1Z" style="fill:#e0e0e0"></path><path d="M435.18,344.83c-.14-.06.95-2.59,2-5.78s1.62-5.89,1.76-5.86a20.13,20.13,0,0,1-1.3,6,38.65,38.65,0,0,1-1.63,4.05A7,7,0,0,1,435.18,344.83Z" style="fill:#e0e0e0"></path><path d="M420.71,365.18a6.43,6.43,0,0,1-.81-.94l-2.06-2.65c-1.74-2.24-4.14-5.34-6.83-8.73s-5.16-6.42-6.95-8.62L402,341.62a7.16,7.16,0,0,1-.73-1,5,5,0,0,1,.87.87c.54.59,1.31,1.44,2.23,2.52,1.86,2.14,4.38,5.15,7.07,8.54s5.06,6.53,6.72,8.83c.84,1.14,1.5,2.08,1.94,2.74A6,6,0,0,1,420.71,365.18Z" style="fill:#e0e0e0"></path><path d="M414.27,356.91a11.91,11.91,0,0,1-2.7-5.06,14.07,14.07,0,0,1-.61-5.09l.21,0a1.72,1.72,0,0,1-.2.59s0-.23,0-.63l.21,0a23.75,23.75,0,0,0,.86,5A37.88,37.88,0,0,0,414.27,356.91Z" style="fill:#e0e0e0"></path><path d="M406,346.44a8.8,8.8,0,0,0-1.88-1.09,12.72,12.72,0,0,0-5.24-.42,34,34,0,0,0-5.27.85,15.76,15.76,0,0,1-2.16.52,7.72,7.72,0,0,1,2.07-.85,24.14,24.14,0,0,1,5.33-1,11.43,11.43,0,0,1,5.39.58A3.42,3.42,0,0,1,406,346.44Z" style="fill:#e0e0e0"></path><path d="M404,343.91c0,.07-1.1-.44-2.89-1.05a28.85,28.85,0,0,0-14.55-1.11c-1.86.33-3,.68-3,.6a2.71,2.71,0,0,1,.76-.33,19.9,19.9,0,0,1,2.18-.61,25.64,25.64,0,0,1,7.45-.52,26,26,0,0,1,7.29,1.64,20.11,20.11,0,0,1,2.06.94A2.77,2.77,0,0,1,404,343.91Z" style="fill:#e0e0e0"></path><path d="M420.64,333.19a60.48,60.48,0,0,1-2.1-7.32,61.14,61.14,0,0,1-1.64-7.43,58.85,58.85,0,0,1,2.11,7.31A59.8,59.8,0,0,1,420.64,333.19Z" style="fill:#e0e0e0"></path><path d="M420.78,333.19a35.8,35.8,0,0,0-2.33-4.38,19.68,19.68,0,0,0-3.44-3.55,3.2,3.2,0,0,1,1.33.69,10.65,10.65,0,0,1,2.5,2.58A9.63,9.63,0,0,1,420.78,333.19Z" style="fill:#e0e0e0"></path><path d="M420.68,429.55c-.05,0-.15-.81-.53-2.23a31.78,31.78,0,0,0-2.25-5.82c-2.32-4.75-6.55-10.77-11.92-16.8-2.66-3-5.24-5.91-7.43-8.66a60.52,60.52,0,0,1-5.32-7.66,38.24,38.24,0,0,1-2.69-5.69c-.24-.71-.42-1.25-.52-1.63a2.4,2.4,0,0,1-.14-.58s.29.77.84,2.14a41.25,41.25,0,0,0,2.81,5.58,63,63,0,0,0,5.36,7.56c2.2,2.72,4.79,5.57,7.46,8.62,5.38,6.05,9.6,12.14,11.86,17a28.7,28.7,0,0,1,2.12,5.92,16.33,16.33,0,0,1,.3,1.69A2.39,2.39,0,0,1,420.68,429.55Z" style="fill:#e0e0e0"></path><path d="M447.23,399.56a9.83,9.83,0,0,1-1.39.78,32.1,32.1,0,0,0-3.61,2.39,41.22,41.22,0,0,0-4.74,4.32c-1.67,1.76-3.38,3.8-5.13,6-3.5,4.39-6.77,8.27-8.72,11.37-1,1.54-1.72,2.83-2.2,3.74a11.39,11.39,0,0,1-.76,1.4s0-.14.13-.39.24-.63.46-1.09a35.71,35.71,0,0,1,2.08-3.84c1.9-3.18,5.14-7.11,8.63-11.5,1.76-2.19,3.49-4.23,5.19-6a38.51,38.51,0,0,1,4.85-4.29,25.81,25.81,0,0,1,3.73-2.27,10.61,10.61,0,0,1,1.09-.48A1.39,1.39,0,0,1,447.23,399.56Z" style="fill:#e0e0e0"></path><path d="M447.75,409.29a19.9,19.9,0,0,1-2.94.43,39,39,0,0,0-7,1.37,21.05,21.05,0,0,0-6.24,3.28c-1.44,1.11-2.12,2-2.19,2a2.33,2.33,0,0,1,.44-.68,11.26,11.26,0,0,1,1.53-1.57,19,19,0,0,1,6.31-3.47,31.48,31.48,0,0,1,7.09-1.25A16.16,16.16,0,0,1,447.75,409.29Z" style="fill:#e0e0e0"></path><path d="M430.26,415.28c-.15-.09,1.17-2.11,2.2-4.83s1.19-5.16,1.36-5.13a4.38,4.38,0,0,1-.05,1.57,16.51,16.51,0,0,1-.85,3.72,18.19,18.19,0,0,1-1.71,3.41A4.85,4.85,0,0,1,430.26,415.28Z" style="fill:#e0e0e0"></path><path d="M455.83,373.44a1.88,1.88,0,0,1-.47.25l-1.38.63c-.61.26-1.34.59-2.17,1s-1.8.87-2.81,1.47l-1.61.92c-.55.32-1.1.7-1.69,1.06-1.18.72-2.37,1.6-3.63,2.51a67.26,67.26,0,0,0-7.59,6.67,68.51,68.51,0,0,0-6.4,7.8c-.86,1.3-1.7,2.51-2.38,3.72-.35.6-.71,1.16-1,1.73s-.58,1.11-.86,1.63c-.57,1-1,2-1.38,2.86s-.71,1.59-.95,2.2-.42,1-.58,1.41a1.89,1.89,0,0,1-.23.48,1.78,1.78,0,0,1,.14-.52l.5-1.43a23,23,0,0,1,.88-2.25c.37-.86.76-1.86,1.32-2.9l.83-1.66c.3-.58.65-1.15,1-1.75.67-1.23,1.5-2.46,2.36-3.77A60.24,60.24,0,0,1,441.8,381c1.28-.9,2.48-1.78,3.68-2.49.6-.36,1.16-.73,1.72-1l1.63-.89c1-.59,2-1,2.86-1.42s1.59-.72,2.21-1l1.42-.55A2.59,2.59,0,0,1,455.83,373.44Z" style="fill:#e0e0e0"></path><path d="M434.81,387.52A3.52,3.52,0,0,1,436,385.8a7.33,7.33,0,0,1,4.66-1.78,12.67,12.67,0,0,1,4.9,1,7.59,7.59,0,0,1,1.85.9,11.42,11.42,0,0,1-2-.57,14.68,14.68,0,0,0-4.77-.8,7.62,7.62,0,0,0-4.45,1.56A15.47,15.47,0,0,0,434.81,387.52Z" style="fill:#e0e0e0"></path><path d="M431.67,390.76a17,17,0,0,0,1.33-4.3,17.61,17.61,0,0,0-.3-4.49,3,3,0,0,1,.55,1.26,8.87,8.87,0,0,1-.76,6.44C432.08,390.41,431.72,390.8,431.67,390.76Z" style="fill:#e0e0e0"></path><path d="M397.46,434.37c.72,12.85,4.59,25.92,10.55,39.13h25.9c5.68-13.08,9.28-26.13,9.92-39.13Z" style="fill:#e0e0e0"></path><path d="M439.64,455.16c0,.14-8.53.25-19.05.25s-19-.11-19-.25,8.52-.24,19-.24S439.64,455,439.64,455.16Z" style="fill:#fafafa"></path><path d="M439.06,459.82c0,.13-8,.24-17.86.24s-17.85-.11-17.85-.24,8-.25,17.85-.25S439.06,459.68,439.06,459.82Z" style="fill:#fafafa"></path><path d="M408.43,442.81a74.25,74.25,0,0,1,0,11.93,71.29,71.29,0,0,1,0-11.93Z" style="fill:#fafafa"></path><path d="M422.3,442.81a76.39,76.39,0,0,1,0,12.35,79.56,79.56,0,0,1,0-12.35Z" style="fill:#fafafa"></path><path d="M435.33,442.7a82.81,82.81,0,0,1,0,12.6,82.81,82.81,0,0,1,0-12.6Z" style="fill:#fafafa"></path><path d="M443,442.81c0,.13-10,.24-22.34.24s-22.33-.11-22.33-.24,10-.25,22.33-.25S443,442.67,443,442.81Z" style="fill:#fafafa"></path><path d="M330.32,221.82c-.19-.09,17.26-27.65,39-61.55S408.74,98.94,408.92,99s-17.26,27.65-39,61.56S330.5,221.91,330.32,221.82Z" style="fill:#ebebeb"></path><path d="M449.5,208.19a7.67,7.67,0,0,0,4.58-7.11,7.23,7.23,0,1,0-14.42-.06,7.67,7.67,0,0,0,4.6,7.17c-11.1,1.68-10.59,13.73-10.59,13.73l26.23.12S460.49,209.86,449.5,208.19Z" style="fill:#ebebeb"></path><path d="M446.78,237.49a28.87,28.87,0,1,1,28.87-28.87A28.9,28.9,0,0,1,446.78,237.49Zm0-56.92a28.05,28.05,0,1,0,28.05,28.05A28.08,28.08,0,0,0,446.78,180.57Z" style="fill:#ebebeb"></path><path d="M73.57,99.38a9.76,9.76,0,0,0,5.81-9c0-5.39-4-9.77-9.11-9.8s-9.16,4.33-9.18,9.72a9.71,9.71,0,0,0,5.83,9.1C52.84,101.5,53.48,116.8,53.48,116.8l33.28.16S87.52,101.49,73.57,99.38Z" style="fill:#ebebeb"></path><path d="M70.12,136.61a36.69,36.69,0,1,1,36.69-36.69A36.73,36.73,0,0,1,70.12,136.61Zm0-72.23a35.55,35.55,0,1,0,35.55,35.54A35.58,35.58,0,0,0,70.12,64.38Z" style="fill:#ebebeb"></path><path d="M428.62,76.82a7.63,7.63,0,0,0,4.55-7.06,7.17,7.17,0,1,0-14.32-.07,7.63,7.63,0,0,0,4.56,7.13c-11,1.66-10.52,13.63-10.52,13.63l26.06.12S439.54,78.47,428.62,76.82Z" style="fill:#ebebeb"></path><path d="M425.92,106a28.84,28.84,0,1,1,28.84-28.84A28.88,28.88,0,0,1,425.92,106Zm0-56.54a27.7,27.7,0,1,0,27.7,27.7A27.73,27.73,0,0,0,425.92,49.49Z" style="fill:#ebebeb"></path><path d="M165.37,166.15a6.74,6.74,0,0,0,4-6.23,6.33,6.33,0,1,0-12.64-.06,6.71,6.71,0,0,0,4,6.29c-9.73,1.47-9.29,12-9.29,12l23,.1S175,167.61,165.37,166.15Z" style="fill:#ebebeb"></path><path d="M163,192.05a25.53,25.53,0,1,1,25.53-25.53A25.55,25.55,0,0,1,163,192.05Zm0-49.91a24.38,24.38,0,1,0,24.39,24.38A24.41,24.41,0,0,0,163,142.14Z" style="fill:#ebebeb"></path><path d="M46.18,250.16a4.91,4.91,0,0,0,2.92-4.54,4.61,4.61,0,1,0-9.2-.05,4.91,4.91,0,0,0,2.93,4.59c-7.08,1.06-6.76,8.76-6.76,8.76l16.74.07S53.19,251.22,46.18,250.16Z" style="fill:#ebebeb"></path><path d="M44.44,269.16a18.74,18.74,0,1,1,18.74-18.73A18.75,18.75,0,0,1,44.44,269.16Zm0-36.33A17.6,17.6,0,1,0,62,250.43,17.62,17.62,0,0,0,44.44,232.83Z" style="fill:#ebebeb"></path><path d="M379.27,26a3.09,3.09,0,0,0,1.84-2.85,2.9,2.9,0,1,0-5.78,0A3.07,3.07,0,0,0,377.17,26c-4.45.67-4.25,5.5-4.25,5.5l10.52.05S383.68,26.71,379.27,26Z" style="fill:#ebebeb"></path><path d="M378.18,38.19a12,12,0,1,1,12-12A12,12,0,0,1,378.18,38.19Zm0-22.82A10.84,10.84,0,1,0,389,26.21,10.85,10.85,0,0,0,378.18,15.37Z" style="fill:#ebebeb"></path><path d="M134.4,41.16a3.07,3.07,0,0,0,1.83-2.85,2.9,2.9,0,1,0-5.78,0,3.09,3.09,0,0,0,1.84,2.88c-4.44.67-4.24,5.5-4.24,5.5l10.52.05S138.81,41.82,134.4,41.16Z" style="fill:#ebebeb"></path><path d="M133.31,53.31a12,12,0,1,1,12-12A12,12,0,0,1,133.31,53.31Zm0-22.82a10.84,10.84,0,1,0,10.84,10.84A10.85,10.85,0,0,0,133.31,30.49Z" style="fill:#ebebeb"></path><path d="M430.58,104.88c.08-.09,3.77,16.78,8.24,37.68s8,37.92,8,38S443,163.8,438.54,142.9,430.51,105,430.58,104.88Z" style="fill:#ebebeb"></path><path d="M143.46,151c-.09.14-10.29-6.1-22.78-13.94s-22.55-14.3-22.46-14.44,10.28,6.1,22.78,13.94S143.55,150.85,143.46,151Z" style="fill:#ebebeb"></path><path d="M397.73,83.28a2.88,2.88,0,0,1-.54.19l-1.62.48-6.23,1.79c-2.71.73-6,1.82-9.81,3s-8.16,2.55-12.95,4.11c-19.15,6.21-45.46,15.28-74.41,25.58s-55.11,19.87-74,26.8l-22.4,8.2-6.1,2.21-1.59.56a3,3,0,0,1-.55.17,3.5,3.5,0,0,1,.53-.23l1.56-.63,6.06-2.34L218,144.74c18.88-7,45-16.67,74-27s55.3-19.3,74.5-25.39c4.79-1.54,9.14-2.9,13-4s7.12-2.17,9.85-2.86l6.27-1.66,1.63-.42A4,4,0,0,1,397.73,83.28Z" style="fill:#ebebeb"></path><path d="M44.44,232.26c-.16,0,3.08-22.07,7.24-49.24s7.64-49.2,7.8-49.18-3.08,22.06-7.24,49.25S44.6,232.28,44.44,232.26Z" style="fill:#ebebeb"></path><path d="M192.56,336.57a5.76,5.76,0,0,0,3.43-5.33,5.42,5.42,0,1,0-10.81-.05,5.75,5.75,0,0,0,3.44,5.38c-8.32,1.26-7.94,10.3-7.94,10.3l19.68.09S200.81,337.82,192.56,336.57Z" style="fill:#ebebeb"></path><path d="M190.52,358.55a21.66,21.66,0,1,1,21.66-21.66A21.68,21.68,0,0,1,190.52,358.55Zm0-42.7a21,21,0,1,0,21,21A21.07,21.07,0,0,0,190.52,315.85Z" style="fill:#ebebeb"></path><path d="M126.93,51.65a8.38,8.38,0,0,1-1.09,1.06l-3.07,2.78-10.15,9.12c-4,3.56-7.6,6.75-10.26,9-1.32,1.13-2.41,2-3.17,2.65a9.17,9.17,0,0,1-1.22.91,7.11,7.11,0,0,1,1.08-1.06l3.07-2.78,10.15-9.12c4-3.56,7.6-6.75,10.26-9,1.33-1.13,2.42-2,3.18-2.65A7.82,7.82,0,0,1,126.93,51.65Z" style="fill:#ebebeb"></path><path d="M386.18,34.11c.1-.11,5.35,4.68,11.73,10.68s11.48,11,11.38,11.06-5.35-4.67-11.74-10.68S386.08,34.21,386.18,34.11Z" style="fill:#ebebeb"></path></g><g id="freepik--Floor--inject-5"><path d="M456.62,473.69c0,.14-96,.26-214.49.26s-214.5-.12-214.5-.26,96-.26,214.5-.26S456.62,473.55,456.62,473.69Z" style="fill:#263238"></path></g><g id="freepik--World--inject-5"><path d="M385.68,139.63c-.15-1.48-.31-2.93-.51-4.38s-.43-3.07-.69-4.59q.39,2.28.69,4.59C385.37,136.7,385.53,138.15,385.68,139.63Z" style="fill:#f5f5f5"></path><path d="M373.92,157.8c-1.27-2.87-1.56-6.05-2.4-9.06-.45-1.61-1.2-3.34-2.72-4.05a24.53,24.53,0,0,0-3.26-.74c-3.83-1.15-4.87-6.49-8.5-8.15a12.18,12.18,0,0,0-3.64-.76c-4.86-.57-9.88-2.25-12.93-6.06a23.76,23.76,0,0,0-3-3.69c-1.25-1-3.17-1.43-4.38-.41,1,2.05,2,4.1,3,6.13a16.16,16.16,0,0,0,3.4,5.1c1.56,1.37,3.85,2.09,5.71,1.22a3.87,3.87,0,0,1,1.93-.67,2.08,2.08,0,0,1,1.25.8c2.64,2.93,1.78,7.78-.8,10.77s-6.37,4.53-10,6a7.75,7.75,0,0,1-4.09.8c-2.54-.47-3.89-3.23-4.63-5.71-1.66-5.49-2.46-11.45-5.86-16.08-1.08-1.46-2.44-2.79-3.09-4.49s-.53-4-1.64-5.61-3.58-2.68-3.75-4.73a3.74,3.74,0,0,1,2.4-3.32c1.31-.63,2.78-.82,4.14-1.37.53-.23,1.12-.62,1.14-1.19,0-.86-1.19-1.21-1.49-2s.59-1.74,1-2.62c.84-2-1.25-4-3.28-4.85S314,101.61,313,99.65a12,12,0,0,1-.66-2.93c-.47-2.48-2.29-4.88-4.79-5.29s-5.31,1.83-4.9,4.33c.25,1.37,1.27,2.43,1.83,3.7s.41,3.16-.91,3.57c-2.15.65-4.22-3.28-6-1.93.74,2.52,1.46,5,2.19,7.58-2.82,1.43-6.2-1.17-7.41-4.12s-1.25-6.29-2.68-9.11-5.31-5-7.77-3c-.12,3.64,4.69,5.12,6.82,8.07,1.54,2.13,1.31,5.59-1,6.94s-5.84-1-5-3.48c.31-.86,1-1.58,1.11-2.5.08-1.15-.88-2.07-1.76-2.8-1.37-1.17-2.75-2.32-4.12-3.47a8.74,8.74,0,0,0-2.93-1.84c-2.82-.82-5.65,1.48-7.15,4s-2.33,5.51-4.4,7.62c-3,3.08-8.6,3.26-11.39,0s-1.37-9.23,2.75-10.4c1.55-.43,3.52-.39,4.34-1.76,1.43-2.44-2.66-5.55-1.25-8,1.09-1.88,3.95-1,6-1.66s3.24-2.72,4.47-4.53,3.11-3.58,5.24-3.11a6.55,6.55,0,0,1,.23-3.73c.55-1.14,2.11-1.88,3.13-1.14-1,1.72.2,4.11,2,5s3.95.66,6,.43,4.52-1,4.69-3c.06-.65-.19-1.35.06-2,.88-2.4,5.3.9,7-1,1-1-.11-2.78-1.48-3.11s-2.76.16-4.16.2-3.09-.67-3.15-2.06,1.47-2.36,1.64-3.71c.26-2.3-3.63-2.89-5-1s-.88,4.43-.47,6.7.63,5-1.05,6.56c-.71,1.08-2.58.51-3.19-.64s-.49-2.54-.6-3.83-.67-2.78-1.94-3.13a7,7,0,0,0-2.73.3c-3.56.43-6-4.17-4.91-7.57s4.34-5.62,7.47-7.36c2.3-1.27,5.15-2.46,7.42-1.17,1.06.6,1.8,1.62,2.85,2.24,1.8,1.06,4,.67,6.1.71a14.27,14.27,0,0,1,8.91,3.47c.92.84,1.78,2.23,1.06,3.23s-3,1.29-2.62,2.54a4.43,4.43,0,0,0,5.57-3.58,3.71,3.71,0,0,1,2.15,3,6.63,6.63,0,0,1,9.73.8,8.43,8.43,0,0,0,1.81,2.31c.82.53,2.25.27,2.35-.69a2,2,0,0,0-.16-.91c-.49-1.39-1-2.76-1.5-4.13,1.91-1,4.16.57,5.45,2.29,4.79,6.41,8.22,2.56,15,3.61,4.57.69,6.58,3.62,9.16,7.17,7.91,10.89,18.35,19.82,25.54,31.21.76,1.19,1.46,2.4,2.11,3.63-.12-.31-.22-.62-.35-.93a126.46,126.46,0,0,0-10.44-21.24c-.88-1.43-1.79-2.84-2.71-4.24-.57-.86-1.16-1.74-1.76-2.58-.76-1.1-1.56-2.17-2.35-3.23-.64-.86-1.27-1.7-1.93-2.52-.45-.58-.92-1.15-1.39-1.72s-1-1.29-1.6-1.93l-1.72-2c-.16-.2-.35-.4-.55-.61-.6-.7-1.23-1.37-1.87-2a.57.57,0,0,0-.18-.2c-.17-.19-.35-.37-.53-.56-.52-.57-1.07-1.12-1.6-1.68-.88-.9-1.78-1.8-2.71-2.66-.75-.76-1.53-1.47-2.33-2.19s-1.39-1.27-2.11-1.88-1.39-1.21-2.11-1.81S338.2,51.76,337.3,51h0c-2.48-2-5-3.87-7.66-5.63-.66-.45-1.29-.88-1.95-1.31s-1.33-.86-2-1.27-1.33-.84-2-1.23-1.35-.82-2-1.21-1.09-.63-1.64-.92a8.85,8.85,0,0,0-.84-.47q-1.76-1-3.54-1.89c-.6-.3-1.19-.61-1.8-.9s-1.54-.76-2.32-1.1a1.63,1.63,0,0,0-.35-.17c-.69-.32-1.39-.65-2.11-1-1-.43-2-.86-3-1.27s-2.29-.94-3.46-1.37-2.58-1-3.89-1.39-2.64-.89-4-1.3-2.67-.77-4-1.14c-2.66-.72-5.37-1.35-8.09-1.91l-.14,0c-1.05-.2-2.09-.41-3.14-.57a.88.88,0,0,0-.2,0c-.45-.08-.92-.17-1.4-.23-1.94-.33-3.91-.59-5.89-.82-.23,0-.48-.06-.72-.08-.57-.08-1.15-.12-1.74-.18-1.31-.13-2.62-.23-4-.31s-2.76-.16-4.15-.21S258.36,23,256.9,23q-5.77,0-11.42.51c-.91.07-1.79.15-2.67.25s-1.84.21-2.76.33-1.85.24-2.75.39-1.82.28-2.74.45-1.58.26-2.36.43c-1.92.37-3.83.78-5.71,1.23-.88.2-1.76.43-2.64.67s-1.77.47-2.63.72c-1.45.41-2.86.86-4.28,1.31h0l-3.44,1.17a.15.15,0,0,0-.08,0c-1.17.41-2.29.84-3.44,1.29l-.19.06c-1,.41-2.09.84-3.11,1.27-1.29.53-2.56,1.11-3.81,1.68-1.06.49-2.11,1-3.13,1.5s-2.21,1.1-3.3,1.68l-.12.06c-1.05.55-2.09,1.12-3.12,1.72S191.07,41,190,41.66h0c-1,.6-1.95,1.19-2.91,1.8-.37.23-.72.48-1.09.72-1,.66-2,1.33-3,2-1.23.84-2.41,1.72-3.6,2.6s-2.07,1.58-3.07,2.38a127,127,0,0,0-16.1,15.26c-1.74,1.92-3.38,3.89-5,5.89-1.35,1.72-2.66,3.47-3.91,5.27-1.13,1.56-2.21,3.16-3.26,4.79,1-1.63,2.13-3.23,3.26-4.79.33,0,.65-.08,1-.1,1.84-.15,3.79-.09,5.45-.89s2.62-2.13,4-3.11c3.57-2.54,9.41-3,10.37-7.27.33-1.43-.06-3,.47-4.36,1-2.56,4.42-2.93,7.17-2.89,1.17,0,2.54.16,3.07,1.19a2.94,2.94,0,0,1-.12,2.37,22.29,22.29,0,0,1-9.4,11.56c-3.57,2.17-8.22,3.85-9.2,7.9.49,1.37,3,1.27,3.19,2.71.15,1.14-1.33,1.74-1.86,2.76-.78,1.5,1,3.32,2.7,3.24s3.12-1.31,4.37-2.46c3.72-3.46,7.64-7.19,9-12.11.57-2,.78-4.4,2.42-5.75A4,4,0,0,1,190,72.34c1.62-.9,4.14-1.57,5,.11a8.78,8.78,0,0,1,.34,1.92c.54,2.62,4.12,3.81,4.49,6.45.43,3.06-3.48,4.63-6.53,5.1-2.77.43-5.53.86-8.3,1.31a7.68,7.68,0,0,0-3.44,1.11,2.68,2.68,0,0,0-1,3.22A7.94,7.94,0,0,0,182,93c2.29,2.3.41,7-2.83,7.13-1.1,0-2.19-.37-3.29-.41-3.28-.14-5.88,2.74-7.44,5.63s-2.72,6.19-5.35,8.15c-4.22,3.18-11.49,2.44-13.53,7.32-.82,2-.39,4.17-.07,6.28s.47,4.43-.75,6.17-4.37,2.09-5.27.16a4.74,4.74,0,0,1-.12-2.72c.49-3,1-6.06,1.43-9.09.35-2.26.66-4.78-.67-6.62-1.87-2.58-6.05-2.34-8.46-.27s-3.4,5.31-4.08,8.4a36.37,36.37,0,0,1-2.33,8.15h0c-.43,2.54-.78,5.12-1.05,7.72s-.45,5.31-.55,8a10.11,10.11,0,0,0,1-1c1.29-1.33,3.9-7,6.23-4.2a2.1,2.1,0,0,1,0,2.56c-.72.92-2.15,1.13-2.7,2.13-.68,1.19.26,2.66,1.37,3.44s2.46,1.29,3.24,2.42c1.49,2.15.06,5.41,1.51,7.6,1.25,1.88,3.91,2,6.19,2.25l.78.13c.63-4.51,2.74-8.18,8.89-9.57,8.47-1.93,19.62,5.1,24.39,11.49,5.32,7.15,7.84,17.27,16,20.85,5.83,2.56,14.13,1.64,17,7.35,2.54,5.13-1.89,10.88-2.56,16.55-.43,3.75.8,7.48,1.08,11.23s-.84,8.15-4.26,9.73c-1.9.86-4.3.76-5.84,2.19-2.72,2.58-.49,7.91-3.21,10.49a13.93,13.93,0,0,1-3.46,1.82c-6.13,3.09-6,12.1-3.12,18.35.11.23.21.43.31.66a129.48,129.48,0,0,0,66.38,18.33,128.75,128.75,0,0,0,60.73-15.12h0a128.9,128.9,0,0,0,11.46-6.9,129.34,129.34,0,0,0,25.91-23c2.17-2.5,4.21-5.1,6.18-7.77,1-1.37,2-2.74,2.91-4.15A122.9,122.9,0,0,0,371.83,212a124.62,124.62,0,0,0,8.38-20.19,126.77,126.77,0,0,0,4.94-21.94c.38-2.91.69-5.86.9-8.83a7.49,7.49,0,0,1-5.21,2.32C377.73,163.27,375.17,160.66,373.92,157.8Z" style="fill:#fafafa"></path><path d="M144.39,186.47c-.41-3.7.82-7.41.88-11.16,0-2.58-.14-5.31-.18-7.91a35.48,35.48,0,0,1-6.57-.92,1.91,1.91,0,0,1-1.21-.61,2.39,2.39,0,0,1-.27-1.38c-.16-2.9-3-4.83-5.49-6.28a21.75,21.75,0,0,0-4-2c0,.31,0,.59,0,.9a129,129,0,0,0,8.23,41.07,124,124,0,0,0,7.91,17c1.27,2.35,2.66,4.67,4.12,6.94,1.8,2.81,3.68,5.55,5.71,8.19,1.88,2.54,3.89,5,6,7.4a127.2,127.2,0,0,0,9.16,9.42q4.26,4,8.91,7.58c-7.07-19-13.73-38.32-25.81-54.46C148.63,196,145,191.72,144.39,186.47Z" style="fill:#e0e0e0"></path><path d="M127.54,150.12c0,.78,0,1.55,0,2.33s0,1.26,0,1.9c0-.64,0-1.26,0-1.9S127.52,150.9,127.54,150.12Z" style="fill:#e0e0e0"></path><g style="opacity:0.6000000000000001"><path d="M184.86,260c1.09.73,2.19,1.45,3.31,2.14.77.5,1.55,1,2.35,1.44-.8-.47-1.58-.94-2.35-1.44C187.05,261.4,186,260.68,184.86,260Z" style="fill:#e0e0e0"></path></g><path d="M294.48,251.83a11.4,11.4,0,0,1-2.41-.26,7.91,7.91,0,0,1-5.72-4.32,15.11,15.11,0,0,1-1-5.64,21.4,21.4,0,0,0-.41-3.85,20.14,20.14,0,0,0-3-6.19,28.77,28.77,0,0,1-2.63-4.78c-1.23-3.11-1.33-6.52-1.42-9.81l0-.8c-.68-22.76-7-41.24-18.36-53.44-1.57-1.69-3.33-3.34-5.55-3.93a6.93,6.93,0,0,0-7.13,2.46,15.56,15.56,0,0,0-1.07,1.76,9.82,9.82,0,0,1-1.88,2.66,5.32,5.32,0,0,1-4.55,1.24,8.26,8.26,0,0,1-5.68-3.92c-2-3.54-1.65-7.91-1.36-11.41l1.17-14.13c.18-2.18.43-5.16,2.19-7.21,1.37-1.58,3.34-2.31,5.25-3a15.62,15.62,0,0,0,4-1.94c2.27-1.7,3.27-4.38,4.34-7.22a30.38,30.38,0,0,1,2.06-4.67,8.74,8.74,0,0,1,8.11-4,3.82,3.82,0,0,1,3,2c1.4-2.63,3.13-4.21,5.27-4.83,4.68-1.34,10.38,2.36,15.9,5.94,5,3.27,9.79,6.36,13.52,5.68.94-.17,1.9-.44,2.82-.7a14.81,14.81,0,0,1,6.08-.84c5.43.76,8.21,6.66,10,11.72l8.85,24.72c1.1,3.08,2.52,6.45,5.44,7.59a11.47,11.47,0,0,0,3.7.54,12.56,12.56,0,0,1,3.84.55,6.18,6.18,0,0,1,4.07,5c.75,4.08-1.29,9.42-4.76,12.42h0A56,56,0,0,1,332,183c-4,2.72-7.77,5.29-9.4,9.52a23,23,0,0,0-1.09,7.23,22.21,22.21,0,0,1-1.26,7.79,22.06,22.06,0,0,1-3.85,5.6,36.7,36.7,0,0,0-2.57,3.28c-2.83,4.27-3.62,9.56-4.37,14.68l-.3,2c-.89,5.7-2.42,12.07-7,16A11.88,11.88,0,0,1,294.48,251.83Z" style="fill:#e0e0e0"></path><g style="opacity:0.6000000000000001"><path d="M127.62,147.06v0h0v0c0,.25,0,.48,0,.72,0,.77,0,1.56,0,2.34,0-.78,0-1.57,0-2.34C127.58,147.54,127.6,147.31,127.62,147.06Z" style="fill:#e0e0e0"></path></g><g style="opacity:0.6000000000000001"><path d="M127.53,154.35c0,.63,0,1.27,0,1.89h0C127.54,155.62,127.54,155,127.53,154.35Z" style="fill:#e0e0e0"></path></g><path d="M145.32,162.39l-.78-.13c-2.28-.24-4.94-.37-6.19-2.25-1.45-2.19,0-5.45-1.51-7.6-.78-1.13-2.13-1.62-3.24-2.42s-2-2.25-1.37-3.44c.55-1,2-1.21,2.7-2.13a2.1,2.1,0,0,0,0-2.56c-2.33-2.76-4.94,2.87-6.23,4.2a9.18,9.18,0,0,1-1,1v0c0,.25,0,.47,0,.72,0,.77,0,1.56,0,2.34s0,1.55,0,2.33,0,1.26,0,1.9,0,1.27,0,1.89a21.75,21.75,0,0,1,4,2c2.52,1.45,5.33,3.38,5.49,6.28a2.39,2.39,0,0,0,.27,1.38,1.91,1.91,0,0,0,1.21.61,35.48,35.48,0,0,0,6.57.92" style="fill:#e0e0e0"></path><path d="M145.09,167.4c0,2.6.23,5.33.18,7.91-.06,3.75-1.29,7.46-.88,11.16.6,5.25,4.24,9.55,7.42,13.77,12.08,16.14,18.74,35.49,25.81,54.46h0c1.31,1,2.64,2,4,3,1.07.77,2.14,1.52,3.23,2.26s2.19,1.45,3.31,2.14c.77.5,1.55,1,2.35,1.44-.1-.23-.2-.43-.31-.66-2.84-6.25-3-15.26,3.12-18.35a13.93,13.93,0,0,0,3.46-1.82c2.72-2.58.49-7.91,3.21-10.49,1.54-1.43,3.94-1.33,5.84-2.19,3.42-1.58,4.53-6,4.26-9.73s-1.51-7.48-1.08-11.23c.67-5.67,5.1-11.42,2.56-16.55-2.85-5.71-11.15-4.79-17-7.35-8.16-3.58-10.68-13.7-16-20.85-4.77-6.39-15.92-13.42-24.39-11.49-6.15,1.39-8.26,5.06-8.89,9.57" style="fill:#e0e0e0"></path><path d="M135.63,114.76c2.41-2.07,6.59-2.31,8.46.27,1.33,1.84,1,4.36.67,6.62-.47,3-.94,6.06-1.43,9.09a4.74,4.74,0,0,0,.12,2.72c.9,1.93,4.06,1.56,5.27-.16s1.08-4.08.75-6.17-.75-4.32.07-6.28c2-4.88,9.31-4.14,13.53-7.32,2.63-2,3.79-5.26,5.35-8.15s4.16-5.77,7.44-5.63c1.1,0,2.19.45,3.29.41,3.24-.1,5.12-4.83,2.83-7.13a7.94,7.94,0,0,1-1.43-1.47,2.68,2.68,0,0,1,1-3.22A7.68,7.68,0,0,1,185,87.23c2.77-.45,5.53-.88,8.3-1.31,3.05-.47,7-2,6.53-5.1-.37-2.64-4-3.83-4.49-6.45a8.78,8.78,0,0,0-.34-1.92c-.84-1.68-3.36-1-5-.11A4,4,0,0,0,184,70.4c-1.64,1.35-1.85,3.73-2.42,5.75-1.35,4.92-5.27,8.65-9,12.11-1.25,1.15-2.67,2.37-4.37,2.46s-3.48-1.74-2.7-3.24c.53-1,2-1.62,1.86-2.76-.2-1.44-2.7-1.34-3.19-2.71,1-4.05,5.63-5.73,9.2-7.9a22.29,22.29,0,0,0,9.4-11.56,2.94,2.94,0,0,0,.12-2.37c-.53-1-1.9-1.19-3.07-1.19-2.75,0-6.17.33-7.17,2.89-.53,1.37-.14,2.93-.47,4.36-1,4.26-6.8,4.73-10.37,7.27-1.39,1-2.47,2.36-4,3.11s-3.61.74-5.45.89c-.33,0-.65.06-1,.1-1.13,1.56-2.21,3.16-3.26,4.79s-2.06,3.27-3,4.94a127.33,127.33,0,0,0-11.22,25q-1.52,4.59-2.66,9.33c-.77,3.16-1.42,6.37-1.95,9.61a36.37,36.37,0,0,0,2.33-8.15C132.23,120.07,133.23,116.83,135.63,114.76Z" style="fill:#e0e0e0"></path><path d="M244.2,54.73c1.22-1.6.86-3.91,1.66-5.77,1.31-3.08,5.41-4.18,6.83-7.22.55-1.17.68-2.59,1.63-3.46s2-.87,2.83-1.53c1.91-1.46,1.12-4.78-.91-6.08-5.07-3.24-14.42.51-18.8,3.68-5.64,4.08-11.16,9-18.66,8.52-2.07-.14-4.22-.7-6.16,0s-3.13,3.64-1.47,4.87c.93.68,2.25.49,3.3,1,1.93.89,2.12,3.69,1.18,5.6s-2.65,3.34-3.76,5.16a9.8,9.8,0,0,0-1.4,5.93,5.45,5.45,0,0,0,1.76,3.81c2.34,1.86,5.89.27,7.86-2s3.34-5.14,5.91-6.67a14.75,14.75,0,0,1,4.2-1.46L240,56.82C241.55,56.45,243.23,56,244.2,54.73Z" style="fill:#e0e0e0"></path><g style="opacity:0.6000000000000001"><path d="M386.27,150.67c0-1.87-.07-3.71-.16-5.55.09,1.84.15,3.68.16,5.55,0,.59,0,1.19,0,1.78,0,2.87-.1,5.7-.26,8.52.16-2.82.26-5.65.26-8.52C386.31,151.86,386.31,151.26,386.27,150.67Z" style="fill:#f5f5f5"></path></g><g style="opacity:0.6000000000000001"><path d="M378.18,107.25c.62,1.63,1.19,3.28,1.74,5-.55-1.67-1.12-3.32-1.74-5,0,0,0,0,0,0h0Z" style="fill:#f5f5f5"></path></g><path d="M386.27,150.67c0-1.87-.07-3.71-.16-5.55s-.25-3.67-.43-5.49c-.15-1.48-.31-2.93-.51-4.38s-.43-3.07-.69-4.59a125.2,125.2,0,0,0-3-13.44c-.48-1.69-1-3.36-1.54-5s-1.12-3.32-1.74-5v0h0c-.65-1.23-1.35-2.44-2.11-3.63-7.19-11.39-17.63-20.32-25.54-31.21-2.58-3.55-4.59-6.48-9.16-7.17-6.75-1-10.18,2.8-15-3.61-1.29-1.72-3.54-3.32-5.45-2.29.49,1.37,1,2.74,1.5,4.13a2,2,0,0,1,.16.91c-.1,1-1.53,1.22-2.35.69a8.43,8.43,0,0,1-1.81-2.31,6.63,6.63,0,0,0-9.73-.8,3.71,3.71,0,0,0-2.15-3A4.43,4.43,0,0,1,301,62.49c-.39-1.25,1.85-1.47,2.62-2.54s-.14-2.39-1.06-3.23a14.27,14.27,0,0,0-8.91-3.47c-2.07,0-4.3.35-6.1-.71-1.05-.62-1.79-1.64-2.85-2.24-2.27-1.29-5.12-.1-7.42,1.17-3.13,1.74-6.37,3.94-7.47,7.36s1.35,8,4.91,7.57a7,7,0,0,1,2.73-.3c1.27.35,1.84,1.82,1.94,3.13s0,2.68.6,3.83,2.48,1.72,3.19.64c1.68-1.6,1.48-4.29,1.05-6.56s-.88-4.83.47-6.7,5.26-1.27,5,1c-.17,1.35-1.7,2.33-1.64,3.71s1.76,2.13,3.15,2.06,2.81-.55,4.16-.2,2.46,2.11,1.48,3.11c-1.71,1.93-6.13-1.37-7,1-.25.61,0,1.31-.06,2-.17,2-2.68,2.75-4.69,3s-4.14.43-6-.43-3.07-3.25-2-5c-1-.74-2.58,0-3.13,1.14a6.55,6.55,0,0,0-.23,3.73c-2.13-.47-4,1.33-5.24,3.11s-2.4,3.9-4.47,4.53-4.95-.22-6,1.66c-1.41,2.46,2.68,5.57,1.25,8-.82,1.37-2.79,1.33-4.34,1.76-4.12,1.17-5.55,7.19-2.75,10.4s8.42,3,11.39,0c2.07-2.11,2.91-5.08,4.4-7.62s4.33-4.81,7.15-4A8.74,8.74,0,0,1,278,95.26c1.37,1.15,2.75,2.3,4.12,3.47.88.73,1.84,1.65,1.76,2.8-.08.92-.8,1.64-1.11,2.5-.86,2.48,2.73,4.83,5,3.48s2.5-4.81,1-6.94c-2.13-2.95-6.94-4.43-6.82-8.07,2.46-2,6.33.1,7.77,3s1.47,6.18,2.68,9.11,4.59,5.55,7.41,4.12c-.73-2.54-1.45-5.06-2.19-7.58,1.8-1.35,3.87,2.58,6,1.93,1.32-.41,1.48-2.3.91-3.57s-1.58-2.33-1.83-3.7c-.41-2.5,2.38-4.74,4.9-4.33s4.32,2.81,4.79,5.29a12,12,0,0,0,.66,2.93c.94,2,3.38,2.56,5.38,3.38s4.12,2.84,3.28,4.85c-.39.88-1.31,1.72-1,2.62s1.49,1.15,1.49,2c0,.57-.61,1-1.14,1.19-1.36.55-2.83.74-4.14,1.37a3.74,3.74,0,0,0-2.4,3.32c.17,2,2.6,3,3.75,4.73s.94,3.77,1.64,5.61,2,3,3.09,4.49c3.4,4.63,4.2,10.59,5.86,16.08.74,2.48,2.09,5.24,4.63,5.71a7.75,7.75,0,0,0,4.09-.8c3.67-1.45,7.48-3,10-6s3.44-7.84.8-10.77a2.08,2.08,0,0,0-1.25-.8,3.87,3.87,0,0,0-1.93.67c-1.86.87-4.15.15-5.71-1.22a16.16,16.16,0,0,1-3.4-5.1c-1-2-2-4.08-3-6.13,1.21-1,3.13-.59,4.38.41a23.76,23.76,0,0,1,3,3.69c3,3.81,8.07,5.49,12.93,6.06a12.18,12.18,0,0,1,3.64.76c3.63,1.66,4.67,7,8.5,8.15a24.53,24.53,0,0,1,3.26.74c1.52.71,2.27,2.44,2.72,4.05.84,3,1.13,6.19,2.4,9.06s3.81,5.47,6.92,5.51a7.49,7.49,0,0,0,5.21-2.32v0c.16-2.82.26-5.65.26-8.52C386.31,151.86,386.31,151.26,386.27,150.67Z" style="fill:#e0e0e0"></path><path d="M333.89,204.39c-1.93.38-2.32,1.52-3.37,3-1.36,1.85-3.31,3.72-4.55,5.55-2.11,3.11-.21,8-3,10.58a19.85,19.85,0,0,0-1.8,1.47,3.26,3.26,0,0,0,.66,4.52,4.43,4.43,0,0,0,4.82.09,7.06,7.06,0,0,0,3-4c.37-1.17.57-2.5,1.5-3.31,1.58-1.39,4-.36,6.13-.65C346.14,220.31,342.32,202.73,333.89,204.39Z" style="fill:#e0e0e0"></path><path d="M386.27,152.23s0-.71-.08-2.1c0-.7-.05-1.56-.08-2.59s-.05-2.22-.18-3.57-.22-2.87-.36-4.53-.43-3.48-.67-5.45c-.55-3.92-1.4-8.42-2.62-13.42-.28-1.26-.7-2.52-1-3.83s-.71-2.66-1.19-4l-1.41-4.16c-.46-1.43-1.08-2.83-1.64-4.29A123.79,123.79,0,0,0,368,86a131.12,131.12,0,0,0-32.79-36.89,128.87,128.87,0,0,0-54.45-24.29A128.22,128.22,0,0,0,247.41,23a126.89,126.89,0,0,0-17.34,2.44A126.86,126.86,0,0,0,196,37.94,137.68,137.68,0,0,0,180,48.08a141.66,141.66,0,0,0-14.57,12.61,140,140,0,0,0-12.74,15,127.39,127.39,0,0,0-10.51,17c-.74,1.51-1.58,3-2.24,4.53l-2.08,4.62q-.93,2.37-1.87,4.74c-.65,1.58-1.12,3.22-1.69,4.83a127.18,127.18,0,0,0-4.9,20,140,140,0,0,0-1.68,20.82A140,140,0,0,0,129.43,173a128.44,128.44,0,0,0,4.91,20c.57,1.61,1,3.25,1.68,4.82s1.25,3.17,1.87,4.75c1.39,3.09,2.73,6.19,4.32,9.16a127.39,127.39,0,0,0,10.51,17,139,139,0,0,0,12.75,14.95A140.61,140.61,0,0,0,180,256.38a129,129,0,0,0,32.74,17.7,135.39,135.39,0,0,0,17.3,4.95,128.77,128.77,0,0,0,105.15-23.71A131,131,0,0,0,368,218.44a125.68,125.68,0,0,0,9-18.27c.56-1.46,1.19-2.86,1.64-4.29l1.41-4.16c.48-1.34.8-2.71,1.19-4s.77-2.56,1-3.82c1.22-5,2.07-9.5,2.62-13.42.24-2,.51-3.78.68-5.45s.24-3.17.35-4.53.16-2.54.18-3.57.06-1.89.08-2.59c.05-1.39.08-2.1.08-2.1s0,.71,0,2.1c0,.7,0,1.56-.06,2.59s0,2.23-.15,3.58-.21,2.87-.34,4.54-.41,3.48-.65,5.45a134.15,134.15,0,0,1-2.58,13.45c-.27,1.26-.68,2.52-1,3.83s-.71,2.67-1.18,4-.93,2.75-1.4,4.17-1.08,2.83-1.64,4.3a124.39,124.39,0,0,1-9,18.32,131.07,131.07,0,0,1-32.82,37A129.13,129.13,0,0,1,280.86,280a130.91,130.91,0,0,1-50.89-.55A127.48,127.48,0,0,1,195.72,267a138.88,138.88,0,0,1-16-10.17,141.65,141.65,0,0,1-14.62-12.66,139,139,0,0,1-12.8-15A126.37,126.37,0,0,1,141.76,212c-1.6-3-2.95-6.09-4.35-9.19-.62-1.59-1.25-3.17-1.87-4.76s-1.12-3.23-1.7-4.85a128.32,128.32,0,0,1-4.92-20.11,130.52,130.52,0,0,1,0-41.81,126.83,126.83,0,0,1,4.92-20.1c.57-1.62,1-3.27,1.7-4.85s1.25-3.17,1.87-4.76L139.51,97c.66-1.57,1.51-3,2.25-4.55a127.33,127.33,0,0,1,10.56-17.07,138.92,138.92,0,0,1,12.79-15,141.58,141.58,0,0,1,14.63-12.66,129.33,129.33,0,0,1,32.87-17.75A138,138,0,0,1,230,25a130.83,130.83,0,0,1,50.88-.55,128.81,128.81,0,0,1,54.59,24.42,131.25,131.25,0,0,1,32.83,37,124.87,124.87,0,0,1,9,18.32c.55,1.47,1.18,2.88,1.63,4.31s.95,2.81,1.4,4.17.8,2.71,1.18,4,.77,2.58,1,3.84A134.15,134.15,0,0,1,385.05,134c.24,2,.5,3.79.65,5.45s.24,3.19.34,4.54.14,2.55.15,3.58,0,1.89.06,2.59C386.27,151.52,386.27,152.23,386.27,152.23Z" style="fill:#263238"></path></g><g id="freepik--character-3--inject-5"><path d="M385.56,446.28l3.12,18.52s-17.77,9.4-17.53,12.88l36.13-4.77-3.68-29.06Z" style="fill:#77FFC0"></path><path d="M399.65,461.76a1.5,1.5,0,0,1,1.24,1.55,1.44,1.44,0,0,1-1.52,1.25,1.57,1.57,0,0,1-1.31-1.65,1.48,1.48,0,0,1,1.73-1.12" style="fill:#e0e0e0"></path><path d="M407.41,473.67l-.35-2.82-34.72,4.81s-1.52.91-1.19,2Z" style="fill:#e0e0e0"></path><path d="M388.07,464.7c0,.17.93.14,1.87.59s1.5,1.13,1.66,1-.25-1.07-1.4-1.6S388,464.54,388.07,464.7Z" style="fill:#263238"></path><path d="M384.49,466.77c0,.17.79.37,1.49,1s1,1.43,1.15,1.4.15-1-.73-1.85S384.47,466.6,384.49,466.77Z" style="fill:#263238"></path><path d="M382.94,471.59c.16,0,.29-.9-.29-1.81s-1.45-1.18-1.51-1,.52.6,1,1.35S382.76,471.59,382.94,471.59Z" style="fill:#263238"></path><path d="M387.83,460.4c.1.15.87-.2,1.88-.27s1.82.15,1.9,0-.76-.69-1.95-.6S387.73,460.27,387.83,460.4Z" style="fill:#263238"></path><path d="M353.19,443.67l1.29,18.74s-18.62,7.6-18.72,11.09l36.43-1.19-.8-29.28Z" style="fill:#77FFC0"></path><path d="M365.69,460.46a1.5,1.5,0,0,1,1.09,1.67,1.44,1.44,0,0,1-1.64,1.09,1.57,1.57,0,0,1-1.14-1.77,1.47,1.47,0,0,1,1.83-.94" style="fill:#e0e0e0"></path><path d="M372.24,473.07l-.07-2.83-35,1.36s-1.6.76-1.38,1.9Z" style="fill:#e0e0e0"></path><path d="M353.88,462.24c0,.18.91.23,1.8.78s1.39,1.27,1.55,1.2-.14-1.1-1.23-1.74S353.84,462.08,353.88,462.24Z" style="fill:#263238"></path><path d="M350.12,464c0,.17.74.45,1.37,1.18s.83,1.53,1,1.51.25-1-.55-1.92S350.11,463.78,350.12,464Z" style="fill:#263238"></path><path d="M348.09,468.59c.17,0,.39-.86-.1-1.82s-1.34-1.32-1.41-1.17.47.66.85,1.45S347.92,468.58,348.09,468.59Z" style="fill:#263238"></path><path d="M354.07,457.94c.08.16.88-.11,1.89-.08s1.8.33,1.89.18-.69-.77-1.87-.8S354,457.8,354.07,457.94Z" style="fill:#263238"></path><path d="M334.21,312.14s5.5,68.48,6.5,77.78c.9,8.31,9.4,70.85,9.4,70.85l24.31-.8-4.2-99.21V304.51l-32.33-2.41Z" style="fill:#263238"></path><path d="M397.63,300.18c-.3,1.52,1.78,10.53,1.56,14.65a140,140,0,0,1-1.83,14.44l-2,45.91,11.92,84.33-22.79,2.22S370,406.35,367.73,395.11s-7.3-33.68-8.21-40.06-6.44-47.14-6.44-47.14Z" style="fill:#263238"></path><path d="M397.63,300.18l-44.53,7.89.14-.19c1.19,8.6,2.53,18.35,4,29.05l2.31,16.76c.37,2.91,1,5.83,1.56,8.81s1.26,6,1.9,9.07q2,9.23,4,19c1.25,6.53,2.86,13.14,4.53,19.9,3.36,13.51,7,27.56,10.74,42q1.21,4.63,2.41,9.23l-.27-.19,22.79-2.23-.23.29c-4.43-31.46-8.48-60.27-11.87-84.33v0c.82-18.31,1.52-33.87,2.06-45.91h0c.81-4.61,1.39-8.75,1.71-12.36a34.54,34.54,0,0,0-.45-9.14c-.36-2.46-.66-4.34-.8-5.62a12.2,12.2,0,0,1-.11-1.45,2.75,2.75,0,0,1,.05-.49s0,.16,0,.49a13.69,13.69,0,0,0,.14,1.44c.16,1.27.49,3.15.87,5.61a34.37,34.37,0,0,1,.53,9.18c-.31,3.62-.87,7.76-1.66,12.39v0c-.51,12.05-1.16,27.61-1.93,45.92v0c3.41,24.06,7.5,52.86,12,84.32l0,.27-.27,0L384.52,462l-.22,0-.06-.21-2.41-9.23c-3.75-14.43-7.38-28.48-10.73-42-1.67-6.75-3.28-13.4-4.52-19.92s-2.72-12.83-4-19q-1-4.6-1.88-9.08c-.59-3-1.19-5.92-1.56-8.83L356.84,337c-1.45-10.71-2.77-20.46-3.93-29.06l0-.16.16,0,32.88-5.6,8.72-1.47,2.23-.37Z" style="fill:#455a64"></path><path d="M383.25,181.81s13.36,10.53,13.65,12.2l-4.45,70L402.54,308s-36.3,9.61-69.71,8.21h0L337.44,238l.9-10.63L345,196.76l6.08-5.95,5.17-8,23.63-8.71Z" style="fill:#77FFC0"></path><path d="M332.83,316.2c.85-24.78,3.88-63.87,5.51-88.79" style="fill:#77FFC0"></path><path d="M338.34,227.41a.93.93,0,0,1,0,.24c0,.18,0,.4,0,.67,0,.64-.07,1.5-.12,2.59-.14,2.29-.33,5.53-.57,9.52-.53,8.07-1.27,19.14-2.08,31.38s-1.52,23.35-2,31.39c-.22,4-.4,7.22-.52,9.51-.06,1.09-.11,2-.15,2.59l-.05.67a.89.89,0,0,1,0,.23.82.82,0,0,1,0-.23v-.67c0-.64,0-1.51.05-2.6.05-2.25.17-5.5.35-9.52.35-8.05,1-19.15,1.82-31.41s1.63-23.34,2.23-31.37c.31-4,.56-7.21.74-9.5.09-1.09.16-2,.22-2.59,0-.27,0-.49.07-.67A.89.89,0,0,1,338.34,227.41Z" style="fill:#263238"></path><path d="M382.76,180.7a6.6,6.6,0,0,1-.61.68l-1.82,1.88-6.75,6.84,0,0-.05,0-5.16,1.32.16-.26.77,3.15,0,.1,0,.09c-2.91,4.22-6.22,9.05-9.72,14.15-6.1,8.81-11.63,16.78-15.66,22.61l-4.8,6.81L337.73,240a5,5,0,0,1-.49.62,3.86,3.86,0,0,1,.4-.68l1.25-1.89,4.65-6.91c4-5.85,9.49-13.85,15.54-22.7,3.52-5.09,6.85-9.9,9.76-14.12l0,.19c-.26-1.1-.52-2.17-.75-3.16l-.05-.21.21-.06,5.17-1.27-.08.05,6.87-6.72,1.89-1.81A5,5,0,0,1,382.76,180.7Z" style="fill:#263238"></path><path d="M379.87,174.08c-1,.38-13.35,10.18-19.87,21.95s-21.15,39.58-21.15,39.58l1.93-9.43,10.93-32.94,4.33-10Z" style="fill:#f5f5f5"></path><path d="M364,189.53c.09.12-2.42,1.95-5.23,4.59l-.24.23-.17-.3-.07-.13c-.93-1.73-1.75-3.3-2.32-4.46l.34-.06a8,8,0,0,1-.51,2,8.46,8.46,0,0,1,.15-2.1l.06-.53.28.47c.65,1.12,1.53,2.67,2.46,4.4l.07.13-.4-.07a37.64,37.64,0,0,1,3.83-3.15A6.8,6.8,0,0,1,364,189.53Z" style="fill:#263238"></path><path d="M305.06,265.45l19.13-.64,10.9-.76,3.21,11.64s-11.06.53-11.93.83c-2.25.8-6.89,3.71-10.12,4.49a3,3,0,0,1-3.35-1.56l0-.05L323.12,274s-16.07,4.05-16.69,1.28c-.05-.22-3.3.23-3.46-2.16l-.06-.79s8.1-1.33,10.93-3.24c0,0-8.71-.91-9.35-2A1.13,1.13,0,0,1,305.06,265.45Z" style="fill:#ffccb3"></path><path d="M321.38,269.1a8.94,8.94,0,0,1-2.31,1.21,35.78,35.78,0,0,1-6,1.84c-1.2.28-2.35.5-3.39.69a22.48,22.48,0,0,0-2.72.54,1.25,1.25,0,0,0-.41.22.68.68,0,0,0-.09.39,4,4,0,0,0,.1.78,2.13,2.13,0,0,1,.11.7s-.15-.22-.3-.64a3.07,3.07,0,0,1-.2-.82.91.91,0,0,1,.11-.6,1.31,1.31,0,0,1,.54-.37,17.55,17.55,0,0,1,2.77-.68l3.36-.71a54,54,0,0,0,6-1.68A24.72,24.72,0,0,1,321.38,269.1Z" style="fill:#ff9a6a"></path><path d="M321.76,266.51a29.91,29.91,0,0,1-3.87,1.54,12.07,12.07,0,0,1-4.05,1.05,29.91,29.91,0,0,1,3.87-1.54A12,12,0,0,1,321.76,266.51Z" style="fill:#ff9a6a"></path><g style="opacity:0.30000000000000004"><path d="M392,269.85a2.63,2.63,0,0,0-2-1.83,8.93,8.93,0,0,0-3,.21l-48.56,9.09-.75,5.31a2.69,2.69,0,0,0,2.08,2.67,7.79,7.79,0,0,0,3.65-.13c15.1-2.94,30.24-5.9,44.83-10.75a14.9,14.9,0,0,0,4.21-2Z"></path></g><path d="M376.24,202a26.67,26.67,0,0,0-.78,10.54c0,.95,5.75,34.47,5.75,34.47l-47.88,15.32,4.15,20.11s52.67-10.22,61-15,7.34-7.35,7.66-13.73-2.79-41.25-2.79-41.25-.09-23.86-15.41-21" style="fill:#77FFC0"></path><path d="M387.91,191.51l.51-.09a9.48,9.48,0,0,1,1.5-.17,7,7,0,0,1,1.12,0,6.69,6.69,0,0,1,1.35.16,8.72,8.72,0,0,1,3.18,1.2,14.41,14.41,0,0,1,5.6,7.44,38.52,38.52,0,0,1,2.31,12.45h0c.54,6,1.14,12.83,1.72,20.37.29,3.78.58,7.73.83,11.84.12,2.06.24,4.15.3,6.29s-.06,4.32-.13,6.54a12.57,12.57,0,0,1-.56,3.35,8.33,8.33,0,0,1-1.82,2.94,22.77,22.77,0,0,1-5.67,4.07l-1.62.75-1.68.61c-1.12.43-2.26.77-3.41,1.13s-2.31.7-3.48,1-2.35.66-3.54,1c-9.52,2.49-19.53,4.71-29.84,6.9-5.77,1.22-11.47,2.38-17.05,3.47l-.25,0,0-.25q-2.13-10.35-4.14-20.11l0-.22.22-.07,47.89-15.27-.13.22c-2.5-14.85-4.53-26.65-5.66-34.5h0a26.69,26.69,0,0,1,.21-7.89,16.56,16.56,0,0,1,.67-2.66s-.05.23-.16.68-.27,1.11-.41,2a27.83,27.83,0,0,0-.11,7.84v0c1.19,7.77,3.29,19.61,5.83,34.43l0,.17-.16,0-47.86,15.38.17-.29q2,9.75,4.15,20.11l-.3-.21q8.37-1.64,17-3.47c10.3-2.19,20.32-4.4,29.82-6.88,1.19-.3,2.36-.64,3.53-1s2.33-.65,3.47-1,2.29-.69,3.39-1.11l1.66-.6,1.57-.74a22.07,22.07,0,0,0,5.56-4,7.72,7.72,0,0,0,1.72-2.77,11.68,11.68,0,0,0,.54-3.22c.08-2.2.22-4.38.14-6.5s-.17-4.22-.28-6.28c-.24-4.1-.52-8.05-.8-11.83-.56-7.54-1.12-14.38-1.63-20.37h0a38.69,38.69,0,0,0-2.22-12.36,14.35,14.35,0,0,0-5.46-7.38,8.75,8.75,0,0,0-3.11-1.22,7.63,7.63,0,0,0-1.34-.18,8.42,8.42,0,0,0-1.11,0,11.27,11.27,0,0,0-1.5.12Z" style="fill:#263238"></path><rect x="359.36" y="218.9" width="13.78" height="9.14" style="fill:#455a64"></rect><path d="M373.14,228a5.2,5.2,0,0,1,0-.69q0-.73-.06-1.86c0-1.66-.06-3.9-.11-6.59l.21.21-13.63,0,.26-.26h0v2.39c0,.79,0,1.57,0,2.33,0,1.53,0,3,0,4.4l-.24-.24c4,0,7.34.07,9.75.12l2.83.06a8,8,0,0,1,1.05.06,5.32,5.32,0,0,1-.95.06l-2.77.06c-2.4.05-5.84.1-9.91.12h-.24V228c0-1.4,0-2.87,0-4.4v-4.72h0c-.24.23.31-.32.26-.26l13.63.05h.21v.21c0,2.83-.07,5.14-.11,6.72,0,.73,0,1.33-.05,1.82A2.53,2.53,0,0,1,373.14,228Z" style="fill:#263238"></path><path d="M364.93,222.5a1.74,1.74,0,1,1-1.73-1.74A1.72,1.72,0,0,1,364.93,222.5Z" style="fill:#fff"></path><polygon points="362.14 292.47 362.14 282.44 388.48 277.13 393.88 285.28 362.14 292.47" style="fill:#77FFC0"></polygon><path d="M362.14,292.47a6,6,0,0,1,.65-.18l1.83-.44,6.69-1.6L393.82,285l-.15.39-3.91-5.88-1.5-2.27.27.11-26.35,5.23.14-.16c-.05,3.07-.08,5.54-.1,7.3,0,.84,0,1.5,0,2s0,.7,0,.72a5,5,0,0,1,0-.65c0-.49,0-1.14,0-1.95,0-1.79-.06-4.3-.1-7.42v-.15l.14,0,26.31-5.4.17,0,.1.15,1.51,2.26,3.89,5.88.21.32-.36.08-22.77,5L364.51,292l-1.77.37Z" style="fill:#263238"></path><g style="opacity:0.30000000000000004"><path d="M339,238c11.46-10,32.92-40.64,32.92-40.64-.44.07,1.78-2.28-2.18-5a8.54,8.54,0,0,0,3.53-2.22l-5.37.75c.47,1.19,1.14,3.5,1.14,3.5s-2.57,3.63-3.61,5.16C356.29,212.91,348.11,224.72,339,238"></path></g><path d="M379.59,174.22l.63-31.23c.42-10.71-4.91-20-15.62-20.09l-1,0a19.15,19.15,0,0,0-18.24,18.49c-.31,9.29-.53,19.55-.23,24.52.62,10.26,11,11.37,11,11.37,0,.32,0,2.87-.06,5.94l0,5.1Z" style="fill:#ffccb3"></path><path d="M356.07,177.33a24.88,24.88,0,0,0,13.19-4.59s-2.91,7.66-13.2,7.22Z" style="fill:#ff9a6a"></path><path d="M362.14,146.69c.22.07,1.26-.69,2.93-1.07s3-.22,3.18-.38-.18-.22-.78-.31a7.31,7.31,0,0,0-2.58.16,6.43,6.43,0,0,0-2.3,1C362.14,146.42,362,146.66,362.14,146.69Z" style="fill:#263238"></path><path d="M362.1,149.87a1.38,1.38,0,0,0,1.4,1.33,1.32,1.32,0,0,0,1.37-1.32,1.38,1.38,0,0,0-1.4-1.33A1.32,1.32,0,0,0,362.1,149.87Z" style="fill:#263238"></path><path d="M357.89,157.9a10.46,10.46,0,0,0-2.58-.34c-.41,0-.79-.08-.87-.35a2.07,2.07,0,0,1,.21-1.21c.33-1,.68-2,1-3.13,1.45-4.44,2.48-8.1,2.3-8.15s-1.5,3.5-2.95,7.95c-.34,1.1-.68,2.14-1,3.14a2.37,2.37,0,0,0-.14,1.59,1,1,0,0,0,.7.56,2.41,2.41,0,0,0,.68.06A10.25,10.25,0,0,0,357.89,157.9Z" style="fill:#263238"></path><path d="M363.39,139.64c.16.39,1.54.13,3.18.26s3,.52,3.19.16c.09-.17-.16-.53-.71-.88a5.31,5.31,0,0,0-2.39-.74,5.16,5.16,0,0,0-2.46.42C363.61,139.14,363.32,139.46,363.39,139.64Z" style="fill:#263238"></path><path d="M347,142.41c.17.31,1.52,0,3.14,0s3,.24,3.15-.08c.08-.16-.18-.44-.74-.7a5.76,5.76,0,0,0-2.39-.46,5.69,5.69,0,0,0-2.4.53C347.2,142,346.93,142.26,347,142.41Z" style="fill:#263238"></path><path d="M379.74,150.78c.18-.08,7.37-2.35,7.29,5s-7.47,5.78-7.48,5.57S379.74,150.78,379.74,150.78Z" style="fill:#ffccb3"></path><path d="M381.83,158.61s.13.09.34.2a1.36,1.36,0,0,0,1,0,3.19,3.19,0,0,0,1.5-2.84,4.36,4.36,0,0,0-.34-1.85,1.52,1.52,0,0,0-1-1,.65.65,0,0,0-.76.35c-.1.2-.06.35-.1.36s-.15-.12-.09-.43a.85.85,0,0,1,.29-.46,1,1,0,0,1,.72-.18,1.83,1.83,0,0,1,1.33,1.16,4.32,4.32,0,0,1,.42,2.06c-.06,1.49-.84,2.88-1.91,3.17a1.39,1.39,0,0,1-1.17-.2C381.84,158.79,381.8,158.62,381.83,158.61Z" style="fill:#ff9a6a"></path><path d="M347.15,145.92c.16.17,1.43.09,3.06.62s2.71,1.37,2.91,1.32,0-.28-.51-.65a7.34,7.34,0,0,0-2.3-1.18,6.88,6.88,0,0,0-2.47-.37C347.29,145.71,347.07,145.84,347.15,145.92Z" style="fill:#263238"></path><path d="M347.73,149.7a1.39,1.39,0,0,0,1.41,1.33,1.33,1.33,0,0,0,1.37-1.32,1.39,1.39,0,0,0-1.41-1.33A1.32,1.32,0,0,0,347.73,149.7Z" style="fill:#263238"></path><path d="M331.72,131.89a1.67,1.67,0,0,1,.8-.95,5.14,5.14,0,0,1,2.63-.36,14.82,14.82,0,0,0,6.45-1.44,7.35,7.35,0,0,1-1.85-1.37,4.41,4.41,0,0,1-1.15-4.41.94.94,0,0,1,.56-.65c.46-.13.85.33,1.16.69a3.78,3.78,0,0,0,3.52,1.6,6.2,6.2,0,0,0,2.68-.72l.09-.1,1.1-1.05h0c2.7-2.55,5-4.3,7.37-5.18a23.83,23.83,0,0,1,12.72-.68c3.55,1,6.67,4,7.08,7.67,2-1.64,5-1.55,7.45-.51l.06,0c2.69,1,4.15,3.94,4.88,6.73,0,.15.08.3.11.46a10.81,10.81,0,0,0,3.56,3.65c.26.16.56.36.58.66a.88.88,0,0,1-.48.71,5.45,5.45,0,0,1-2.22.86,12.19,12.19,0,0,0,.85,1.92c.29.53.64,1.16.36,1.69a1.15,1.15,0,0,1-1.21.49,3.36,3.36,0,0,1-1.25-.6c.29.73.57,1.46.85,2.2a6.38,6.38,0,0,1-2.94-.28,70.12,70.12,0,0,1-2.09,7.59c-1.13,0-2.2-.32-2.91.29-1,.83-1.44,2.42-3,1.77-.8-.33-1.49-2-1.73-2.85a40.09,40.09,0,0,1-1.31-17,12.83,12.83,0,0,0-3.89-3l.12.11c-2.84-1.06-6.05-2.12-8.8-.85-2.14,1-3.43,3.15-5.05,4.85a15.16,15.16,0,0,1-11.2,5c-.48,3.09-.25,7-.47,9.9L342.6,144v0c-.19-.34-.35-.69-.5-1l-.05-.11h0a16.5,16.5,0,0,0-.77-1.66l0,0a1.8,1.8,0,0,1-2.57-2.48,4.23,4.23,0,0,1,.89-.85,2.83,2.83,0,0,1-2.73.63,2.24,2.24,0,0,1-1.53-2.25,1.94,1.94,0,0,1,1.18-1.5,6.45,6.45,0,0,1-3.64-.89C332.14,133.49,331.45,132.79,331.72,131.89Z" style="fill:#263238"></path><path d="M371.62,126a8.92,8.92,0,0,1,1,1,7.23,7.23,0,0,1,1.49,3.44,13.37,13.37,0,0,1,.2,2.61c0,.94-.12,1.95-.22,3a25.87,25.87,0,0,0-.17,3.36,12,12,0,0,0,.19,1.77,3.62,3.62,0,0,0,.68,1.74,1.51,1.51,0,0,0,1.43.52,2.2,2.2,0,0,0,1.32-.7,5.33,5.33,0,0,0,1.06-2.58l-.22,0a8.49,8.49,0,0,0,1.19,2.18,3.07,3.07,0,0,0,2,1.14,2,2,0,0,0,1.06-.16,1.71,1.71,0,0,0,.74-.69,1.84,1.84,0,0,0,.24-.9,1.27,1.27,0,0,0-.31-.81l-.11.1a6.47,6.47,0,0,0,2.16,1.7,5,5,0,0,0,.67.29l.24.06L386,143a6.13,6.13,0,0,1-.66-.32,6.67,6.67,0,0,1-2.08-1.73l-.11.1a1.32,1.32,0,0,1,0,1.52,1.52,1.52,0,0,1-.67.61,1.71,1.71,0,0,1-1,.13,2.82,2.82,0,0,1-1.82-1.07,8.56,8.56,0,0,1-1.15-2.14l-.14-.33-.08.35a5.07,5.07,0,0,1-1,2.47,2.08,2.08,0,0,1-1.18.63,1.34,1.34,0,0,1-1.22-.44,3.57,3.57,0,0,1-.63-1.63,11.54,11.54,0,0,1-.18-1.74,27.58,27.58,0,0,1,.15-3.33c.09-1.07.18-2.08.2-3a13.59,13.59,0,0,0-.23-2.64,7.29,7.29,0,0,0-1.58-3.47A4.26,4.26,0,0,0,371.62,126Z" style="fill:#455a64"></path><path d="M339.67,135.2l.08.07.25.19a3.34,3.34,0,0,0,.42.29,4.43,4.43,0,0,0,.62.34,9.07,9.07,0,0,0,4.37.91,11.62,11.62,0,0,0,6.24-2.13,20.24,20.24,0,0,0,5.47-6c.77-1.22,1.41-2.48,2.11-3.64a14.09,14.09,0,0,1,2.37-3.06,6.92,6.92,0,0,1,3-1.71,4.66,4.66,0,0,1,1.56-.14,5.35,5.35,0,0,1,1.42.31,5.85,5.85,0,0,1,3.22,2.87,6,6,0,0,1,.49,1.55s0,0,0-.11,0-.19,0-.32a5.49,5.49,0,0,0-.36-1.16,5.92,5.92,0,0,0-3.25-3,5.67,5.67,0,0,0-1.46-.34,5.36,5.36,0,0,0-1.63.13,7.18,7.18,0,0,0-3.1,1.75,14.22,14.22,0,0,0-2.42,3.1c-.71,1.17-1.35,2.42-2.12,3.63a20.07,20.07,0,0,1-5.39,5.94,11.56,11.56,0,0,1-6.12,2.14,9.21,9.21,0,0,1-4.32-.82A13,13,0,0,1,339.67,135.2Z" style="fill:#455a64"></path><path d="M338.85,130.67a1.55,1.55,0,0,0,.36.26,7.27,7.27,0,0,0,1.07.59,9.92,9.92,0,0,0,1.71.6,11.92,11.92,0,0,0,2.2.35,12.26,12.26,0,0,0,2.22-.09,10.82,10.82,0,0,0,1.77-.41,8.46,8.46,0,0,0,1.13-.45c.26-.13.4-.21.39-.23s-.59.24-1.57.52a12,12,0,0,1-3.93.42,13.51,13.51,0,0,1-2.15-.32,11,11,0,0,1-1.7-.55C339.41,131,338.87,130.63,338.85,130.67Z" style="fill:#455a64"></path><path d="M363.05,160.57s-3.73,1.09-5.15,1.61l.57,1.62a2.55,2.55,0,0,0,4.37.84,2.63,2.63,0,0,0,.59-1.82A14.47,14.47,0,0,0,363.05,160.57Z" style="fill:#ff9a6a"></path><path d="M357.9,162.18a28.77,28.77,0,0,1,5.08-1.86l.27-.08.06.28,0,.12a11.37,11.37,0,0,1,.34,2.16,2.6,2.6,0,0,1-.54,1.78c-.71.84-1.44.89-1.43.84s.6-.27,1.13-1.06.34-2.12,0-3.61l0-.12.33.19A28.69,28.69,0,0,1,357.9,162.18Z" style="fill:#263238"></path></g><g id="freepik--character-2--inject-5"><path d="M226.15,442.09l-.25,25.45-6,20.07a2.6,2.6,0,0,0,1.92,3.29h0a2.59,2.59,0,0,0,2.31-.59c4-3.6,18.42-16.79,18.48-18.37.07-2.06,2.16-27.21,2.16-27.21Z" style="fill:#455a64"></path><path d="M221.81,490.9l21-21.88-.08,1.89a3.19,3.19,0,0,1-.68,2.29,221.94,221.94,0,0,1-17.66,17.52,2.9,2.9,0,0,1-2.58.18Z" style="fill:#263238"></path><path d="M237.81,461.46a1.58,1.58,0,0,0-.5,2,1.54,1.54,0,0,0,2,.52,1.67,1.67,0,0,0,.52-2.17,1.58,1.58,0,0,0-2.17-.3" style="fill:#fff"></path><path d="M228,480c-.15.07-.68-1.28-2.16-2.05a8.1,8.1,0,0,0-2.91-.66c0-.06.3-.25.9-.31a4,4,0,0,1,2.27.48,4.09,4.09,0,0,1,1.66,1.61C228,479.59,228.05,480,228,480Z" style="fill:#263238"></path><path d="M226.07,483.33a21,21,0,0,0-2.22-1.17,20.94,20.94,0,0,0-2.47-.4,2.87,2.87,0,0,1,2.65-.13C225.51,482.12,226.2,483.26,226.07,483.33Z" style="fill:#263238"></path><path d="M231.51,475.73a25.18,25.18,0,0,0-3.3-2,26.12,26.12,0,0,0-3.75-1,7.13,7.13,0,0,1,7,3Z" style="fill:#263238"></path><path d="M232.23,468c-.07.15-1.46-.49-3.28-.61s-3.29.26-3.34.1a5.07,5.07,0,0,1,3.38-.66A5,5,0,0,1,232.23,468Z" style="fill:#263238"></path><path d="M232.5,460.53a12.75,12.75,0,0,0-3.41-.73,13,13,0,0,0-3.4.74c0-.06.25-.36.85-.68a5.7,5.7,0,0,1,5.11,0C232.25,460.17,232.54,460.48,232.5,460.53Z" style="fill:#263238"></path><path d="M229.19,458.38a2.06,2.06,0,0,1,0-1,6.82,6.82,0,0,1,.85-2.49,3,3,0,0,1,1.32-1.38,1.05,1.05,0,0,1,1.17.28,1.7,1.7,0,0,1,.37,1.16,3.69,3.69,0,0,1-3.34,3.3,4.3,4.3,0,0,1-4.13-2.37,1.53,1.53,0,0,1,0-1.24,1,1,0,0,1,1.1-.51,3.62,3.62,0,0,1,1.64.93,7.3,7.3,0,0,1,1.67,2,2.72,2.72,0,0,1,.37.89,12.62,12.62,0,0,0-2.29-2.62,3.4,3.4,0,0,0-1.45-.77.55.55,0,0,0-.6.27,1,1,0,0,0,.07.82,3.81,3.81,0,0,0,3.6,2,3.19,3.19,0,0,0,2.87-2.76,1.21,1.21,0,0,0-.22-.82.56.56,0,0,0-.64-.16,2.72,2.72,0,0,0-1.14,1.14A9.85,9.85,0,0,0,229.19,458.38Z" style="fill:#263238"></path><path d="M278.25,440l-.93,21.47s21.51,8.17,21.72,12.16l-41.71-.33.09-33.52Z" style="fill:#455a64"></path><path d="M264.43,459.58a1.69,1.69,0,0,0-1.19,1.93,1.63,1.63,0,0,0,1.91,1.2,1.8,1.8,0,0,0,1.25-2.06,1.69,1.69,0,0,0-2.12-1" style="fill:#e0e0e0"></path><path d="M257.33,473.31l.15-3.38,39.93,1.58s1.85.82,1.63,2.13Z" style="fill:#263238"></path><path d="M278,461.28c0,.2-1,.28-2,.93s-1.55,1.5-1.74,1.42.13-1.26,1.36-2S278,461.09,278,461.28Z" style="fill:#263238"></path><path d="M282.35,463.12c0,.2-.84.54-1.53,1.39s-.91,1.77-1.11,1.76-.33-1.17.56-2.21S282.35,462.93,282.35,463.12Z" style="fill:#263238"></path><path d="M284.8,468.37c-.19.05-.46-1,.07-2.08s1.49-1.55,1.57-1.38-.51.76-.93,1.68S285,468.36,284.8,468.37Z" style="fill:#263238"></path><path d="M277.66,456.36c-.08.18-1-.11-2.17,0s-2.05.43-2.15.25.76-.89,2.12-.95S277.77,456.2,277.66,456.36Z" style="fill:#263238"></path><path d="M283.77,278.55s6.83,15.65,6.47,27.38c-1.37,45.2-10.67,152.75-10.67,152.75H255.86l-.81-144.23-5.42,76.45-3,69.28L224.19,463l-9.58-144,1.21-24.7,6.1-17Z" style="fill:#263238"></path><path d="M247,306.42a5.26,5.26,0,0,0,1.05.44c.68.25,1.68.6,2.91,1l.24.08v-.24c.15-2.07.31-4.83.46-7.85.16-3.29.28-6.26.34-8.41,0-1.07,0-1.94,0-2.55a3.78,3.78,0,0,0,0-.94,3,3,0,0,0-.15.93c-.06.6-.13,1.47-.21,2.55-.15,2.14-.33,5.11-.49,8.39-.15,3-.27,5.79-.33,7.86l.25-.16c-1.24-.38-2.26-.67-3-.86A5.32,5.32,0,0,0,247,306.42Z" style="fill:#455a64"></path><path d="M248.94,288.57s-.08-.14-.34-.22a1.56,1.56,0,0,0-1.14.09,1.43,1.43,0,0,0-.86,1.41,1.71,1.71,0,0,0,1.37,1.52,1.86,1.86,0,0,0,1.9-.86,1.55,1.55,0,0,0,0-1.63,1.68,1.68,0,0,0-.85-.71c-.26-.09-.41-.08-.41-.05s.58.2.94.92a1.23,1.23,0,0,1-.06,1.24,1.46,1.46,0,0,1-1.4.62,1.33,1.33,0,0,1-1-1.09,1.08,1.08,0,0,1,.57-1.07A2,2,0,0,1,248.94,288.57Z" style="fill:#455a64"></path><path d="M237.11,290.33c.14,0,.33-.73.43-1.66s.07-1.7-.07-1.71-.33.73-.44,1.66S237,290.32,237.11,290.33Z" style="fill:#455a64"></path><path d="M235.32,290.16c.14,0,.26-.79.26-1.77s-.1-1.77-.24-1.78-.26.8-.27,1.78S235.18,290.16,235.32,290.16Z" style="fill:#455a64"></path><path d="M266.4,291.34c.14,0,.35-.88.48-2a4.26,4.26,0,0,0,0-2.05,4.34,4.34,0,0,0-.49,2A4.28,4.28,0,0,0,266.4,291.34Z" style="fill:#455a64"></path><path d="M264.23,291.51a3.19,3.19,0,0,0,.63-2.09,3.06,3.06,0,0,0-.45-2.13,10.36,10.36,0,0,0-.06,2.11A10.75,10.75,0,0,0,264.23,291.51Z" style="fill:#455a64"></path><path d="M272.38,289.21a2.4,2.4,0,0,0,.09.76,15,15,0,0,0,.52,2,21.37,21.37,0,0,0,3.19,6.12,21.94,21.94,0,0,0,5,4.87,15.21,15.21,0,0,0,1.83,1.13,2.57,2.57,0,0,0,.72.32c0-.07-.93-.61-2.36-1.69a26,26,0,0,1-4.86-4.88,24.46,24.46,0,0,1-3.25-6C272.69,290.26,272.46,289.2,272.38,289.21Z" style="fill:#455a64"></path><path d="M216.64,300.78a2.38,2.38,0,0,0,.78.12,12.47,12.47,0,0,0,2.16,0,14.17,14.17,0,0,0,6.6-2.44,13.13,13.13,0,0,0,4.4-5.28,10.69,10.69,0,0,0,.68-1.95,2.42,2.42,0,0,0,.11-.74c-.09,0-.31,1-1.08,2.56a13.94,13.94,0,0,1-4.38,5.06,15,15,0,0,1-6.37,2.49C217.77,300.81,216.64,300.7,216.64,300.78Z" style="fill:#455a64"></path><g style="opacity:0.30000000000000004"><path d="M214.91,314.44c0,.19,37.6-2,37.6-2l5.32-10.65,4.27,10.65h28l.25-7.07-32.15-18-25.3,10-17.62,9.77Z"></path></g><path d="M271.29,455.93a1.6,1.6,0,0,1,0-.35c0-.26,0-.6,0-1,0-.94,0-2.27,0-4,0-3.46,0-8.46.07-14.64.12-12.36.54-29.44,1.11-48.29s1-35.93,1.26-48.29c.09-6.16.17-11.15.23-14.64,0-1.7,0-3,.06-4,0-.43,0-.77,0-1a1.65,1.65,0,0,1,0-.36,2.45,2.45,0,0,1,0,.36c0,.26,0,.6,0,1,0,.94,0,2.28,0,4,0,3.46,0,8.46-.07,14.64-.12,12.37-.54,29.44-1.1,48.3s-1,35.93-1.26,48.29c-.1,6.15-.18,11.14-.23,14.63,0,1.71-.05,3-.07,4,0,.44,0,.78,0,1A1.35,1.35,0,0,1,271.29,455.93Z" style="fill:#455a64"></path><path d="M231.79,456c-.14,0-.19-30.7-.1-68.56s.27-68.56.42-68.56.19,30.69.1,68.56S231.94,456,231.79,456Z" style="fill:#455a64"></path><path d="M202.56,184.27a11.43,11.43,0,0,0-4,7.42c-1.37,11.51-4.92,41.59-5.3,48.65-.4,7.52.74,17.84,7.87,19.33s38.33,1.78,38.33,1.78l1.63-23.16-25.7-.31,2.7-30-15.51-23.7Z" style="fill:#455a64"></path><polygon points="231.89 166.46 226.63 173.21 202.56 184.27 218.05 246.3 217.35 252.8 208.78 311.01 250.09 309.52 257.92 291.06 263.63 309.56 291.62 309.56 293.01 295.77 281.61 240.35 288.07 181.6 262.89 173.21 256.8 164.35 231.89 166.46" style="fill:#455a64"></polygon><path d="M288.07,181.6a9.79,9.79,0,0,1,3.55,5.15c3.25,12.31,8.92,41.95,10.42,46.46,1.91,5.73,3.85,22.37,2.12,28.24-1.65,5.58-13.94,38.43-13.94,38.43l-7.52-33.54,5.69-19.56-3.22-10.09-6.76-29.86Z" style="fill:#455a64"></path><path d="M256.8,228.13a4,4,0,0,1-.42-.54L255.24,226l-4.09-5.89-13.33-19.55L228,186.05,228,186l0-.11,1.7-4.78.12.25-4-1.39-.12,0,0-.13c.27-2,.48-3.65.64-4.84.08-.52.14-.94.19-1.28a2.13,2.13,0,0,1,.09-.43,1.47,1.47,0,0,1,0,.44c0,.34-.06.77-.11,1.29-.12,1.19-.29,2.82-.49,4.86l-.11-.16,4,1.31.18.06-.06.19c-.51,1.47-1.06,3.08-1.65,4.8l0-.2c2.87,4.2,6.24,9.17,9.86,14.48,5.15,7.64,9.8,14.56,13.21,19.63l3.95,6,1.06,1.64A2.94,2.94,0,0,1,256.8,228.13Z" style="fill:#263238"></path><path d="M262.89,173.21a1.53,1.53,0,0,1,.33.28l.89.89,3.31,3.38.12.13-.14.11-1.59,1.21,0-.26,1.95,2.22.06.08,0,.1c-1,5.08-2.34,11.61-3.77,18.73-1.7,8.21-3.25,15.64-4.38,21.1-.58,2.64-1.05,4.81-1.39,6.38-.17.71-.3,1.28-.41,1.73a2.39,2.39,0,0,1-.17.6,2.82,2.82,0,0,1,.07-.62c.08-.45.18-1,.31-1.75.3-1.58.72-3.76,1.22-6.42,1.1-5.46,2.59-12.9,4.24-21.13,1.48-7.1,2.83-13.63,3.88-18.71l.05.18-1.91-2.25-.12-.15.15-.11,1.62-1.19,0,.24-3.2-3.49-.84-.94A2,2,0,0,1,262.89,173.21Z" style="fill:#263238"></path><path d="M258.09,293a2.89,2.89,0,0,1-.06-.66c0-.49,0-1.12-.09-1.9-.05-1.71-.12-4.08-.2-7-.15-5.89-.31-14-.42-23s-.14-17.13-.07-23c0-2.94.09-5.33.18-7a18.65,18.65,0,0,1,.16-1.9,2.75,2.75,0,0,1,.1-.49s0-.1.08-.1,0,0,0,0c-.11-.15-.15.85-.18,2.46s0,4,0,7c.06,5.94.14,14.05.23,23s.2,17.07.26,23c0,2.9,0,5.27,0,7,0,.78,0,1.41,0,1.89A3.16,3.16,0,0,1,258.09,293Z" style="fill:#263238"></path><polygon points="232.85 166.07 231.89 174.4 257.45 229.07 261.37 202.58 260.41 175.88 256.94 166.07 232.85 166.07" style="fill:#f5f5f5"></polygon><path d="M247.84,178.56a19.38,19.38,0,0,1-1.28,2.77c-.85,1.7-2.06,4-3.45,6.7l-.17.33-.25-.28-1.11-1.21c-2.28-2.5-4.32-4.78-5.78-6.45a23.73,23.73,0,0,1-2.28-2.77,24.87,24.87,0,0,1,2.55,2.53c1.53,1.6,3.61,3.84,5.89,6.34l1.11,1.22-.42,0c1.41-2.64,2.68-5,3.61-6.62A18.59,18.59,0,0,1,247.84,178.56Z" style="fill:#263238"></path><path d="M263.63,309.56l.5,0,1.47,0,5.6-.05,20.42-.09-.2.18,1.36-13.8v.08c-2-9.51-4.2-20.36-6.57-31.82-1.71-8.31-3.35-16.29-4.85-23.6v-.07c1.51-14.58,3.05-27.05,3.89-35.91.41-4.4.73-7.92,1-10.36q.15-1.77.24-2.76c0-.3.05-.53.07-.71a.92.92,0,0,1,0-.24.73.73,0,0,1,0,.24q0,.27,0,.72c0,.65-.09,1.58-.16,2.77-.16,2.41-.42,5.94-.82,10.37-.75,8.87-2.23,21.36-3.7,35.93v-.08c1.5,7.31,3.15,15.29,4.87,23.59l6.52,31.83v.07c-.51,5-1,9.63-1.42,13.79l0,.18h-.18l-20.42-.08-5.6-.06-1.47,0Z" style="fill:#263238"></path><path d="M216.61,238.29c-.14,0-.44-7-.66-15.75s-.28-15.76-.13-15.76.43,7,.65,15.75S216.75,238.29,216.61,238.29Z" style="fill:#263238"></path><g style="opacity:0.30000000000000004"><path d="M274.91,251.57a2.33,2.33,0,0,0-1.83-.72c-9.11-.73-18.26-1.46-27.36-.73s-18.24,3-26,7.87l-3.93,2.8c8.31,2.81,17.49,4.62,26.15,3.21a4.39,4.39,0,0,0,2.88-1.28c.74-1,.63-2.3,1.05-3.43a5.2,5.2,0,0,1,4.06-3,20,20,0,0,1,5.24.1,44.92,44.92,0,0,0,17.58-2,4.32,4.32,0,0,0,1.82-1A1.57,1.57,0,0,0,274.91,251.57Z"></path></g><path d="M212,238.29c.61.91,29.13.49,29.12,0l-2.15,23.16-27-.77" style="fill:#455a64"></path><path d="M212,260.68a1.76,1.76,0,0,1,.52,0H214l5.59.09,19.37.46-.25.23c.36-3.94.76-8.22,1.17-12.69.34-3.65.67-7.18,1-10.47l.5,0a.29.29,0,0,1-.11.21l-.07.05-.09,0-.12,0-.2,0-.4,0-.79.06-1.54.08-3,.09-5.59.09c-3.53,0-6.65,0-9.25,0-5.18-.08-8.3-.38-8.22-.68,0,.18,3,.36,8.23.36,2.59,0,5.71,0,9.24-.08l5.57-.13,3-.11,1.53-.09.77-.06.38,0,.18,0h.08c.08.11.06.21.14.2l.26,0c-.3,3.29-.63,6.82-1,10.47-.41,4.46-.82,8.75-1.19,12.68l0,.23h-.23l-19.37-.65-5.59-.23-1.49-.09A2.85,2.85,0,0,1,212,260.68Z" style="fill:#263238"></path><path d="M259.52,174.64a49.44,49.44,0,0,1-1.78,6.83c-.06.21-.13.42-.19.62l-.12.39-.3-.28c-1.31-1.18-2.63-2.1-3.51-2.84a5.91,5.91,0,0,1-1.36-1.28,9,9,0,0,1,1.57,1,39.06,39.06,0,0,1,3.65,2.74l-.42.12.18-.62A47.53,47.53,0,0,1,259.52,174.64Z" style="fill:#263238"></path><polygon points="252.26 178.08 248.31 178.45 246.63 181.66 250.03 186.07 253.91 186.07 255.23 180.28 252.26 178.08" style="fill:#77FFC0"></polygon><path d="M250,186.07s-2,9.19-1.68,13.91.42,11,.42,11l8.69,18.14,2.61-17.51s-3.62-18.66-4.83-21.54a16.46,16.46,0,0,1-1.32-4Z" style="fill:#77FFC0"></path><path d="M253.9,185.92c0,.14-.85.4-2,.46s-2-.11-2-.25.88-.22,2-.27S253.88,185.78,253.9,185.92Z" style="fill:#263238"></path><path d="M253.82,179.38a12,12,0,0,1-2.26,2.76,12.51,12.51,0,0,1-2.63,2.41,11.79,11.79,0,0,1,2.26-2.76A12.51,12.51,0,0,1,253.82,179.38Z" style="fill:#263238"></path><g style="opacity:0.30000000000000004"><path d="M234.57,180.13s8.37,10.3,8.62,10.22l3.06-8.79-3.37,6.35-9.76-10.7Z"></path></g><g style="opacity:0.30000000000000004"><path d="M269.48,181.52s-3-2.45-3.78-2.45l1.92,2.23s-.56,2.72-.79,3.81c-2.89,13.88-5.84,29-8.74,42.86,3.94-13.71,7.56-28.18,10.47-42.15C268.85,184.45,269.48,181.52,269.48,181.52Z"></path></g><path d="M211.81,200a47.44,47.44,0,0,0-4.39-6.49,46.57,46.57,0,0,0-5.78-5.29,7,7,0,0,1,2,1.16,23.48,23.48,0,0,1,4.16,3.79,23.1,23.1,0,0,1,3.13,4.67A7.37,7.37,0,0,1,211.81,200Z" style="fill:#263238"></path><rect x="268.29" y="206.78" width="13.63" height="9.14" style="fill:#77FFC0"></rect><rect x="268.29" y="208.62" width="13.63" height="1.3" style="fill:#fff"></rect><rect x="268.29" y="211.8" width="13.63" height="1.3" style="fill:#fff"></rect><rect x="268.29" y="214.62" width="13.63" height="1.3" style="fill:#fff"></rect><rect x="268.29" y="206.78" width="5.98" height="5.02" style="fill:#455a64"></rect><path d="M281.93,215.92a4.18,4.18,0,0,1-.05-.69c0-.49,0-1.11-.05-1.86,0-1.66-.06-3.9-.11-6.59l.21.21-13.63,0c-.06.05.49-.49.25-.26h0v4.71c0,1.53,0,3,0,4.4l-.24-.24c4,0,7.34.07,9.76.12l2.83.06a8,8,0,0,1,1.05.06,5.32,5.32,0,0,1-.95.06l-2.78.06c-2.39.05-5.84.1-9.91.12h-.23v-.24c0-1.4,0-2.87,0-4.4v-2.33c0-.4,0-.8,0-1.2v-1.18h0c-.23.23.32-.32.27-.26l13.63,0h.21v.21c0,2.83-.07,5.14-.11,6.72,0,.73,0,1.33-.06,1.82A3.14,3.14,0,0,1,281.93,215.92Z" style="fill:#263238"></path><path d="M267.16,218s-10.85,45.58-11.1,46.36h36l10.75-47.21Z" style="fill:#f5f5f5"></path><path d="M267.16,218a6,6,0,0,1,.63,0l1.87-.08,7.17-.22,26-.73h.27l-.06.27c-3,13.24-6.68,29.49-10.66,47l0,.2-.05.21h-.21l-36,0h-.3l.08-.31C259.17,250.53,262,239,264,230.76c1-4,1.78-7.24,2.33-9.45.27-1.07.48-1.9.62-2.49.07-.26.13-.47.17-.63s.06-.21.06-.2,0,.08,0,.23-.08.38-.14.66c-.13.6-.33,1.45-.57,2.54-.52,2.23-1.28,5.46-2.22,9.53-1.93,8.17-4.67,19.75-7.91,33.47l-.22-.31,36,0-.25.2,0-.2c4-17.53,7.73-33.77,10.76-47l.21.26-25.88.51-7.21.12-1.91,0Z" style="fill:#263238"></path><path d="M266.23,235.63s9.44-.44,9.55,1.54-.66,1.2-3.08,1.86-10.53,1.43-10.53,1.43-1.2,1.09,1.54.76,12.17-.31,13.05.07a1.73,1.73,0,0,1-.66,3.12c-2,.43-13.71,1.42-13.71,1.42s15-.11,15.11.88-.41,2.19-2.38,2.52H273.8s1.1,1.87-1,2.2-11.22,1.64-13.67,1.42-13.86-.44-13.86-.44l-5.62.47,1.1-12.42,5.62-.88s7.13-4.72,8.88-5.6,5.91-.7,8.43-1.46l-.47,3.09,3,0" style="fill:#b56760"></path><path d="M266.85,235.61a45,45,0,0,1-5.41.44c-1.49.11-2.83.25-3.8.39a6.35,6.35,0,0,1-1.58.19,3.93,3.93,0,0,1,1.51-.55,24.26,24.26,0,0,1,3.83-.55A21.44,21.44,0,0,1,266.85,235.61Z" style="fill:#8a4a43"></path><path d="M274.14,249.31a34.74,34.74,0,0,1-6,.35,34.07,34.07,0,0,1-6-.18,34.2,34.2,0,0,1,6-.34A34.72,34.72,0,0,1,274.14,249.31Z" style="fill:#8a4a43"></path><path d="M257.48,146.91A76.29,76.29,0,0,0,261,134.19a26.66,26.66,0,0,0-.89-13c-.22-.63-2.15-4.85-2.82-4.79-.47,0,.7,4,.46,4.38A22.63,22.63,0,0,0,255,133.91a59.48,59.48,0,0,0,2.48,13" style="fill:#263238"></path><path d="M257.32,169.48l.8-39.36c.49-11-5.51-20.51-16.55-20.7l-1,0a19.75,19.75,0,0,0-18.91,19c-.37,9.56-.66,20.13-.39,25.24.57,10.58,11.22,11.79,11.22,11.79s0,.94,0,4.05l16,8.95,3.81-.36Z" style="fill:#b56760"></path><path d="M232.46,165.44a25.59,25.59,0,0,0,13.62-4.64s-3,8.09-13.59,7.58Z" style="fill:#8a4a43"></path><path d="M225.54,137.54a1.51,1.51,0,0,0,1.52,1.47,1.45,1.45,0,0,0,1.5-1.43,1.52,1.52,0,0,0-1.52-1.47A1.45,1.45,0,0,0,225.54,137.54Z" style="fill:#263238"></path><path d="M224.08,133c.19.19,1.3-.7,2.93-.77s2.85.7,3,.5-.12-.44-.66-.8a4.16,4.16,0,0,0-2.43-.64,4,4,0,0,0-2.32.86C224.14,132.54,224,132.91,224.08,133Z" style="fill:#263238"></path><path d="M239.82,137.54a1.52,1.52,0,0,0,1.52,1.47,1.44,1.44,0,0,0,1.5-1.43,1.51,1.51,0,0,0-1.52-1.47A1.45,1.45,0,0,0,239.82,137.54Z" style="fill:#263238"></path><path d="M240,132.71c.19.19,1.31-.71,2.93-.77s2.85.7,3,.5-.12-.44-.66-.8a4.14,4.14,0,0,0-4.75.22C240.1,132.26,239.94,132.63,240,132.71Z" style="fill:#263238"></path><path d="M234.72,145.45a10.85,10.85,0,0,0-2.66-.37c-.42,0-.82-.09-.9-.37a2.12,2.12,0,0,1,.23-1.24c.35-1,.71-2.09,1.1-3.22,1.52-4.57,2.6-8.32,2.41-8.38s-1.56,3.6-3.08,8.17c-.37,1.13-.72,2.2-1,3.23a2.44,2.44,0,0,0-.15,1.64,1.07,1.07,0,0,0,.71.58,3.15,3.15,0,0,0,.71.07A10.7,10.7,0,0,0,234.72,145.45Z" style="fill:#263238"></path><path d="M239.3,127.64c.24.41,1.8-.09,3.72-.21s3.53.11,3.71-.33c.08-.21-.26-.57-.95-.88a6.38,6.38,0,0,0-2.88-.44,6,6,0,0,0-2.78.86C239.48,127,239.19,127.45,239.3,127.64Z" style="fill:#263238"></path><path d="M223.8,128.21c.35.36,1.67-.06,3.26-.12s2.95.17,3.25-.22c.13-.19-.09-.56-.69-.89a5.23,5.23,0,0,0-2.66-.54,5.07,5.07,0,0,0-2.58.81C223.83,127.65,223.65,128,223.8,128.21Z" style="fill:#263238"></path><path d="M257.58,138c.18-.09,7.18-2.46,7.25,4.79s-7.22,5.82-7.24,5.61S257.58,138,257.58,138Z" style="fill:#b56760"></path><path d="M259.78,145.64s.13.08.34.18a1.27,1.27,0,0,0,.95,0,3.15,3.15,0,0,0,1.42-2.82,4.32,4.32,0,0,0-.37-1.8,1.49,1.49,0,0,0-1-1,.64.64,0,0,0-.74.35c-.1.21-.05.35-.09.36s-.16-.12-.1-.42a.8.8,0,0,1,.28-.45.91.91,0,0,1,.7-.19,1.77,1.77,0,0,1,1.33,1.11,4.22,4.22,0,0,1,.45,2c0,1.46-.77,2.84-1.81,3.15A1.35,1.35,0,0,1,260,146C259.8,145.81,259.76,145.65,259.78,145.64Z" style="fill:#8a4a43"></path><path d="M226.31,116.4c-1.17-.64,2.35-4.44,5.23-5.75,4.36-2,11-3.2,15-2.07,4.84,1.37,8.86,3.78,11.29,8.18a28.57,28.57,0,0,1,3.21,14.55,8.84,8.84,0,0,1-1,4.43c-1,1.6-3,2.61-2.87,4.82a3,3,0,0,1-.75,2.21c-1.33,1.41-3,.09-3.7-1.24-1.59-2.84-1.77-6.23-1.91-9.48a21.21,21.21,0,0,1,.45-6.89c.36-1.21.93-2.35,1.21-3.58A4.34,4.34,0,0,0,252,118a4.61,4.61,0,0,0-.59-.6,7.56,7.56,0,0,0-7.5-1.42c-4.08,1.44-11.05,3.6-12.87,2.22a11.2,11.2,0,0,1-3.25-3.29Z" style="fill:#263238"></path><path d="M239.83,146.46c-.25,0-.26,1.65-1.69,2.82s-3.2,1-3.22,1.22.4.32,1.15.35a4.21,4.21,0,0,0,2.68-.93,3.61,3.61,0,0,0,1.31-2.36C240.13,146.86,239.94,146.45,239.83,146.46Z" style="fill:#263238"></path></g><g id="freepik--character-1--inject-5"><polygon points="108.48 205.25 115.61 271.78 140.87 286.91 160.68 280.04 155.26 202.54 142.78 198.67 118.33 197.81 108.48 205.25" style="fill:#fff"></polygon><path d="M114,424.72,92.16,444.65l24.66,27.23c2.46-2.51-5.08-21.33-5.08-21.33l13.61-13.16Z" style="fill:#455a64"></path><path d="M105.3,441.06a1.51,1.51,0,0,0-2,.38,1.45,1.45,0,0,0,.36,1.95,1.58,1.58,0,0,0,2.08-.41,1.49,1.49,0,0,0-.6-2" style="fill:#fff"></path><path d="M92.16,444.65l2.28-2.11,22.71,27.1s.56,1.69-.43,2.32Z" style="fill:#263238"></path><path d="M112.28,450.87c-.14.11-.8-.5-1.82-.77s-1.89-.11-1.95-.28.89-.66,2.12-.32S112.43,450.78,112.28,450.87Z" style="fill:#fff"></path><path d="M113.69,454.79c-.11.15-.85-.22-1.82-.16s-1.69.46-1.8.32.5-.89,1.71-.94S113.81,454.67,113.69,454.79Z" style="fill:#fff"></path><path d="M111.74,459.51c-.17-.12.22-.84,1.39-1.2s1.89,0,1.83.2-.79.12-1.64.4S111.87,459.63,111.74,459.51Z" style="fill:#fff"></path><path d="M115.27,447.72c-.17,0-.54-.72-1.27-1.43s-1.5-1.07-1.45-1.25,1,0,1.89.81S115.44,447.69,115.27,447.72Z" style="fill:#fff"></path><path d="M117.92,444.15c-.06.05-.61-.4-1.23-1.37a8.24,8.24,0,0,1-.85-1.83,9.34,9.34,0,0,1-.3-1.16,2.5,2.5,0,0,1-.05-.7.78.78,0,0,1,.65-.7,1,1,0,0,1,.83.31,2.38,2.38,0,0,1,.4.57,6.14,6.14,0,0,1,.47,1.11,6.52,6.52,0,0,1,.32,2,3.16,3.16,0,0,1-.38,1.8c-.1,0,0-.7-.06-1.78a7.59,7.59,0,0,0-.42-1.84,6.43,6.43,0,0,0-.47-1c-.18-.36-.4-.6-.6-.56s-.09,0-.12.17a1.6,1.6,0,0,0,0,.51,8.72,8.72,0,0,0,.24,1.09,9.46,9.46,0,0,0,.69,1.78A14.17,14.17,0,0,1,117.92,444.15Z" style="fill:#fff"></path><path d="M117.57,444.15c-.06,0,.17-.73,1-1.56a6.06,6.06,0,0,1,1.66-1.16,5.2,5.2,0,0,1,1.15-.4,1.49,1.49,0,0,1,1.47.24.86.86,0,0,1,.14.92,2.61,2.61,0,0,1-.38.59,4.17,4.17,0,0,1-2.85,1.52c-1.19.11-1.85-.3-1.81-.35s.7.12,1.75-.08a4.16,4.16,0,0,0,1.67-.73,3.55,3.55,0,0,0,.76-.74c.26-.3.39-.62.26-.71a1.07,1.07,0,0,0-.88-.07,6.33,6.33,0,0,0-1,.33,6.64,6.64,0,0,0-1.6,1C118,443.61,117.66,444.2,117.57,444.15Z" style="fill:#fff"></path><path d="M108.69,443.93l.28,29.52,36.73-.16c-.23-3.5-19.26-10.47-19.26-10.47l.6-18.92Z" style="fill:#455a64"></path><path d="M115.07,461.28a1.5,1.5,0,0,0-1,1.71,1.44,1.44,0,0,0,1.69,1,1.57,1.57,0,0,0,1.08-1.82,1.49,1.49,0,0,0-1.88-.89" style="fill:#fff"></path><path d="M109,473.51l0-3.16,35.33,1.2s1.63.71,1.45,1.87Z" style="fill:#263238"></path><path d="M127,462.63c0,.18-.9.27-1.78.85s-1.35,1.33-1.51,1.26.1-1.1,1.17-1.79S127.07,462.47,127,462.63Z" style="fill:#263238"></path><path d="M130.89,464.21c0,.17-.73.48-1.34,1.24s-.78,1.57-1,1.56-.29-1,.48-1.95S130.89,464,130.89,464.21Z" style="fill:#263238"></path><path d="M133.1,468.81c-.16,0-.42-.85,0-1.84s1.29-1.38,1.37-1.23-.44.68-.8,1.49S133.28,468.79,133.1,468.81Z" style="fill:#263238"></path><path d="M126.69,458.3c-.07.17-.9-.08-1.91,0s-1.8.39-1.9.24.66-.8,1.86-.87S126.78,458.16,126.69,458.3Z" style="fill:#263238"></path><path d="M110.54,275.5s-5.15,5.51-7.68,10.8-6.41,16.53-6.41,16.53S91.61,320,92.69,328.12,101,391.63,101,391.63s-1.43,43.92,4.77,63.46l1.14,5.19,20.71-3.68h0l4.59-108.73L144.86,276Z" style="fill:#263238"></path><path d="M137,280.14c-.09,0-.06-.68-.8-1.2a1.54,1.54,0,0,0-1.42-.14,1.47,1.47,0,0,0,0,2.75,1.52,1.52,0,0,0,1.41-.2c.72-.54.67-1.24.76-1.21s.08.15,0,.43a1.71,1.71,0,0,1-.59,1.06,1.85,1.85,0,0,1-1.78.35,1.91,1.91,0,0,1-.06-3.61,1.83,1.83,0,0,1,1.79.29,1.67,1.67,0,0,1,.62,1C137.06,280,137,280.14,137,280.14Z" style="fill:#455a64"></path><path d="M161,290.45s7.59,68.93,8.68,80.76-41.87,75-41.87,75l-18.13-21.42,27.66-51.42-9.31-51.21,12.26-46.21,19.07.23Z" style="fill:#263238"></path><path d="M102.61,438.5s0,.52.14,1.51.37,2.44.72,4.31c.69,3.75,1.8,9.19,3.3,16l0,.14.15,0,20.72-3.63.15,0v-.16c.57-14.22,1.26-31.21,2-49.42.77-19.61,1.47-37.79,2.06-52.7v0c1.56-12,2.84-21.89,3.74-28.82.43-3.44.77-6.15,1-8,.11-.91.19-1.61.25-2.11s.06-.72.06-.72-.05.24-.12.72-.17,1.19-.31,2.09c-.26,1.86-.63,4.56-1.11,8-.94,6.93-2.28,16.83-3.9,28.8h0c-.6,14.91-1.34,33.08-2.14,52.69-.71,18.22-1.37,35.21-1.93,49.42l.17-.18-20.7,3.72.17.11c-1.54-6.78-2.7-12.21-3.44-15.95-.37-1.87-.64-3.31-.79-4.3-.09-.49-.13-.86-.17-1.11S102.61,438.5,102.61,438.5Z" style="fill:#455a64"></path><path d="M134,303.53a10.5,10.5,0,0,1,1.14.06,5.16,5.16,0,0,0,2.91-.5,2.67,2.67,0,0,0,1.17-1.57,11.13,11.13,0,0,0,.36-2.37c.14-1.72.29-3.61.42-5.6.27-4,.42-7.57.5-10.18.05-1.23.09-2.26.12-3.1a5.69,5.69,0,0,1,.09-1.13,4.46,4.46,0,0,1,.1,1.13c0,.74,0,1.79,0,3.1,0,2.62-.09,6.23-.36,10.22-.13,2-.29,3.88-.46,5.6a11.29,11.29,0,0,1-.42,2.46,3.06,3.06,0,0,1-1.38,1.74,3.88,3.88,0,0,1-1.76.46,7.63,7.63,0,0,1-1.35-.07A3.77,3.77,0,0,1,134,303.53Z" style="fill:#455a64"></path><path d="M160.19,290.5a7.33,7.33,0,0,1-2-1.05,20.13,20.13,0,0,1-4.08-3.56,20.55,20.55,0,0,1-3-4.5,7,7,0,0,1-.78-2.1,36.64,36.64,0,0,0,4.15,6.28A38.2,38.2,0,0,0,160.19,290.5Z" style="fill:#455a64"></path><path d="M120.36,179.05,114.05,186l-21.18,7.14,8.41,62.48-6.84,30.13-7.25,28.37s21.36,5.81,26.86,2.64,12.21-34.05,14.25-41.38,5.09-29.11,3.66-40.72-3.86-28.7-5.09-34.61S120.36,179.05,120.36,179.05Z" style="fill:#77FFC0"></path><path d="M92.87,193.11s-5.55,7.27-7.12,14.24c-2.66,11.79-12.94,44-12.33,51.48S113.84,280,113.84,280l1.63-21L97,249.31,102,229.54" style="fill:#77FFC0"></path><path d="M102,229.54s0,.12-.07.35l-.23,1c-.23.91-.55,2.21-1,3.89-.86,3.42-2.11,8.36-3.67,14.56l-.08-.19,18.55,9.71.12.07v.14c-.48,6.37-1,13.46-1.6,21l0,.32-.31-.11c-7.8-2.74-16.2-5.95-24.66-9.87-2.78-1.31-5.51-2.66-8.1-4.18s-5.16-3.09-7-5.46a6,6,0,0,1-.57-1,2.6,2.6,0,0,1-.17-.56,2,2,0,0,1-.08-.57,17.51,17.51,0,0,1,.08-2.18c.12-1.43.38-2.82.61-4.19.54-2.74,1.13-5.41,1.77-8C78.2,234,80.92,224.76,83.06,217c1.08-3.88,2-7.39,2.76-10.5A34.55,34.55,0,0,1,89,199a49.94,49.94,0,0,1,2.75-4.39c.34-.49.61-.85.8-1.09l.29-.36s-.08.14-.25.39l-.75,1.12c-.65,1-1.6,2.45-2.66,4.43a34.56,34.56,0,0,0-3.11,7.53c-.74,3.1-1.62,6.65-2.69,10.52-2.09,7.77-4.78,17-7.31,27.3q-1,3.87-1.75,8c-.23,1.36-.48,2.75-.6,4.15a18.42,18.42,0,0,0-.07,2.1,3.24,3.24,0,0,0,.73,1.84c1.73,2.23,4.32,3.79,6.85,5.31s5.29,2.85,8.06,4.15c8.43,3.92,16.83,7.13,24.6,9.88l-.32.22c.59-7.52,1.15-14.6,1.65-21l.12.21-18.49-9.81-.12-.06,0-.13c1.63-6.18,2.92-11.11,3.82-14.51.44-1.67.79-3,1-3.88.11-.42.21-.75.28-1A1.65,1.65,0,0,1,102,229.54Z" style="fill:#263238"></path><path d="M145.58,184.08l2.65,3.87L163.3,193s1.32,15.28,1.32,20-1.93,56.59-1.93,59,9.36,35.63,8.55,37.67-10.59,3.46-10.59,3.46S157,284.45,157,274.68s-.41-33.8-2.45-45.6-9-38.69-9-38.69Z" style="fill:#77FFC0"></path><path d="M163.3,193s4.45,1.92,4.95,12.18,1.35,33.49,1.35,33.49,2.86,3.87,3.19,7.06,5.73,21.88,5.73,21.88l-12.12,4L163.3,266l-2.62-56.7Z" style="fill:#77FFC0"></path><path d="M157.2,280.14s0-.09,0-.25,0-.42,0-.71c0-.67,0-1.58,0-2.74.06-2.43.14-5.86.23-10.08.2-8.51.54-20.27.76-33.26,0-1.62,0-3.22,0-4.8s-.17-3.11-.28-4.64c-.25-3.06-.49-6-.78-8.8s-.6-5.45-1-7.91a33.48,33.48,0,0,0-1.9-6.64A85.94,85.94,0,0,0,150,191.2c-.56-1-1-1.82-1.31-2.4l-.35-.63a1,1,0,0,1-.1-.22s.06.06.15.19l.39.6c.33.53.81,1.33,1.39,2.36a76.78,76.78,0,0,1,4.43,9.07,33.54,33.54,0,0,1,2,6.71c.44,2.47.77,5.13,1.07,7.93s.55,5.75.81,8.8c.12,1.53.29,3.08.29,4.68s0,3.2,0,4.82c-.21,13-.62,24.75-.91,33.26-.17,4.22-.3,7.65-.39,10.07-.06,1.16-.11,2.07-.14,2.74,0,.29,0,.52,0,.72A.58.58,0,0,1,157.2,280.14Z" style="fill:#263238"></path><path d="M131,258.83a3.72,3.72,0,0,1-.12-.76c-.05-.5-.11-1.24-.18-2.2-.11-1.92-.23-4.69-.17-8.13,0-1.71.09-3.59.22-5.61a25,25,0,0,0-.76-6.3,106,106,0,0,0-4.68-13.92c-2-4.85-4-9.4-5.87-13.52a55.15,55.15,0,0,1-2.51-5.95,54.52,54.52,0,0,1-1.33-5.47c-.65-3.37-1-6.12-1.24-8-.11-.95-.18-1.69-.23-2.19a3.84,3.84,0,0,1,0-.78,4.81,4.81,0,0,1,.14.76c.08.55.19,1.28.32,2.19.3,1.89.71,4.63,1.4,8,.36,1.67.77,3.5,1.38,5.41a60.21,60.21,0,0,0,2.53,5.88c1.91,4.11,4,8.66,5.92,13.52a102.64,102.64,0,0,1,4.67,14,25.19,25.19,0,0,1,.72,6.44c-.14,2-.24,3.88-.29,5.59-.1,3.42,0,6.19,0,8.11,0,.92.06,1.65.08,2.2A4.47,4.47,0,0,1,131,258.83Z" style="fill:#263238"></path><path d="M189.35,257.23l-11.12,15a2,2,0,0,1-2,.79L128.15,264a2,2,0,0,1-1.56-2.61l5.19-16a2,2,0,0,1,2.3-1.37l54,10A2,2,0,0,1,189.35,257.23Z" style="fill:#263238"></path><path d="M85.75,250.62a4.67,4.67,0,0,1,1.61-1.31A10.12,10.12,0,0,1,92.2,248a10,10,0,0,1,4.87,1.21,4.61,4.61,0,0,1,1.65,1.26c0,.07-.68-.41-1.81-.93a11.07,11.07,0,0,0-4.7-1,10.85,10.85,0,0,0-4.67,1.14C86.42,250.19,85.8,250.69,85.75,250.62Z" style="fill:#263238"></path><g style="opacity:0.30000000000000004"><polygon points="96.03 278.71 116.12 286.1 118.1 278.22 127.09 280.04 128.31 275.48 114.19 273.5 114.05 280.04 97.19 273.67 96.03 278.71"></polygon></g><path d="M115.34,260.74s3.8-3.21,5-3.93,5.16-3.35,7-3.08l1.81.27-1.63,4.8S142,256.63,144,259s-2.18,2.81-4.35,3.08-9.15,1.45-9.15,1.45,18.2-2,19.47,0-1.77,2.44-1.77,2.44l-12,4.79-1.38.55-1.39,1.81s-4.95,3.43-6.49,3-12.73-2.58-12.73-2.58Z" style="fill:#ffbf9d"></path><path d="M128,269a13.58,13.58,0,0,1,2.82-.86,70.66,70.66,0,0,1,14.08-2,14.24,14.24,0,0,1,2.95.05,20.6,20.6,0,0,1-2.93.31c-1.8.16-4.3.4-7,.78s-5.2.84-7,1.19A21.71,21.71,0,0,1,128,269Z" style="fill:#ff9a6c"></path><path d="M129.65,272.47a7.57,7.57,0,0,1,2.61-.94,7.46,7.46,0,0,1,2.74-.45,7.46,7.46,0,0,1-2.61.95A7.59,7.59,0,0,1,129.65,272.47Z" style="fill:#ff9a6c"></path><path d="M174.42,251.49s2.19-2.49,3.85-2.49c1.5,0,2.66.86,2.66,2v1.69Z" style="fill:#ffbf9d"></path><path d="M164.29,205.87a3.59,3.59,0,0,1,.08.67l.14,1.92c.13,1.67.22,4.09.28,7.08.11,6-.17,14.25-.77,23.35s-1.11,17.35-1.22,23.32c-.07,3-.09,5.4-.07,7.07v1.93a3.16,3.16,0,0,1,0,.67,3.23,3.23,0,0,1-.07-.67q0-.73-.09-1.92c-.09-1.68-.12-4.1-.1-7.09,0-6,.48-14.24,1.07-23.34s.94-17.34.92-23.32c0-3,0-5.4-.11-7.07,0-.79,0-1.43,0-1.92A2.77,2.77,0,0,1,164.29,205.87Z" style="fill:#263238"></path><path d="M103.49,227.46a5.91,5.91,0,0,1-.09-1.34c0-.86-.06-2.1-.17-3.63a64.34,64.34,0,0,0-2-11.82,63.94,63.94,0,0,0-4.2-11.22c-.67-1.38-1.25-2.49-1.67-3.24a6.57,6.57,0,0,1-.59-1.21,7.82,7.82,0,0,1,.77,1.11c.47.72,1.1,1.8,1.82,3.17a55.39,55.39,0,0,1,6.2,23.19c.06,1.54.06,2.79,0,3.66A8,8,0,0,1,103.49,227.46Z" style="fill:#263238"></path><path d="M187.48,259.75s1.62,2.16,1.05,3.89-4.66,4.87-4.66,4.87-1.58,1.87-2.3,1.87-4.14.62-3.9-1.41,3.26-2.39,3.26-2.39.07-.74,1.36-1.66,2.87-2,2.87-2Z" style="fill:#ffbf9d"></path><path d="M184.56,268c.05.06-.15.32-.61.58a2.47,2.47,0,0,1-2,.18A1.9,1.9,0,0,1,181,268a1.72,1.72,0,0,1-.28-.94c0-.57.31-.83.36-.78s-.06.32,0,.76a1.59,1.59,0,0,0,1,1.21,2.51,2.51,0,0,0,1.72,0C184.25,268,184.52,267.89,184.56,268Z" style="fill:#ff9a6c"></path><path d="M163.58,248.17a15,15,0,0,1,4.52-8.35c.12.11-1.25,1.75-2.48,4.06S163.73,248.22,163.58,248.17Z" style="fill:#263238"></path><rect x="108.8" y="220.65" width="13.63" height="9.14" style="fill:#455a64"></rect><path d="M122.43,229.79a4,4,0,0,1-.05-.69c0-.49,0-1.11,0-1.85,0-1.66-.06-3.9-.11-6.6l.21.21-13.63,0,.26-.26h0v1.19c0,.4,0,.8,0,1.2v2.34c0,1.52,0,3,0,4.39l-.23-.24c4,0,7.34.07,9.75.12l2.83.06a8,8,0,0,1,1.05.06,5.32,5.32,0,0,1-1,.06l-2.78.06c-2.39.05-5.84.1-9.9.12h-.24v-.24c0-1.4,0-2.87,0-4.39v-4.73h0c-.24.23.31-.32.26-.26l13.63.05h.21v.21c0,2.83-.07,5.14-.11,6.72,0,.73,0,1.33,0,1.82A3.36,3.36,0,0,1,122.43,229.79Z" style="fill:#263238"></path><path d="M117.92,225.55a2.31,2.31,0,1,1-2.31-2.31A2.3,2.3,0,0,1,117.92,225.55Z" style="fill:#fff"></path><g style="opacity:0.30000000000000004"><path d="M152.9,190.16c-7.52,3.06-15.17,6.16-23.25,6.91a29.35,29.35,0,0,1-22.72-8.14H105.3c-.76,5.7,3.46,11.59,7.16,16,4,4.74,8.36,9.39,13.9,12.18s12.52,3.42,17.82.19c4.26-2.61,6.87-7.35,8-12.22S153.1,195.15,152.9,190.16Z"></path></g><path d="M162.52,173.86c-1.1-5.73-8-26.37-8-26.37-5.26-23.09-22.32-20.89-22.32-20.89-25.22-.14-25.07,40.55-25.07,40.55l-2.61,4.15c-3.65,6.09-10.09,11.29-6.46,20.07l6.68-2.14,49.31,2.19S163.62,179.58,162.52,173.86Z" style="fill:#455a64"></path><path d="M118.13,138.19l14.88-6,3.9.44c8.77,0,14.88,10.38,15,17.48.11,7.89-.11,16.77-1.33,22.59C148.08,184.4,139,185.45,139,185.45s.11,3.19.2,7.12a12.39,12.39,0,0,1-12.64,12.68h0a12.4,12.4,0,0,1-12.14-12.34l-.18-50.7A4.15,4.15,0,0,1,118.13,138.19Z" style="fill:#ffbf9d"></path><path d="M147,158.72a1.51,1.51,0,0,1-1.54,1.46,1.45,1.45,0,0,1-1.49-1.44,1.52,1.52,0,0,1,1.54-1.46A1.45,1.45,0,0,1,147,158.72Z" style="fill:#263238"></path><path d="M148.75,153.38c-.2.19-1.3-.72-2.93-.79s-2.86.67-3,.47.13-.44.67-.8a4.2,4.2,0,0,1,2.44-.62,4.1,4.1,0,0,1,2.32.88C148.7,152.93,148.85,153.3,148.75,153.38Z" style="fill:#263238"></path><path d="M138.81,166.12a11.36,11.36,0,0,1,2.67-.34c.42,0,.81-.08.9-.36a2.13,2.13,0,0,0-.22-1.25c-.34-1-.7-2.1-1.07-3.23-1.48-4.59-2.53-8.36-2.35-8.42s1.54,3.62,3,8.21c.36,1.14.7,2.21,1,3.25a2.39,2.39,0,0,1,.13,1.64,1,1,0,0,1-.71.57,3.15,3.15,0,0,1-.71.07A10.24,10.24,0,0,1,138.81,166.12Z" style="fill:#263238"></path><path d="M139,185.45a30.09,30.09,0,0,1-15.59-5s3.8,8.39,15.66,7.88Z" style="fill:#ff9a6c"></path><path d="M137.92,170a2.93,2.93,0,0,0-2.57-1.22,2.7,2.7,0,0,0-1.9.9,1.71,1.71,0,0,0-.23,1.94,2,2,0,0,0,2.11.64,6.07,6.07,0,0,0,2.14-1.14,1.77,1.77,0,0,0,.49-.45.55.55,0,0,0,0-.61" style="fill:#ff9a6c"></path><path d="M148,148.48c-.3.36-1.4-.08-2.75-.17s-2.5.13-2.75-.27c-.1-.2.1-.56.61-.88a3.81,3.81,0,0,1,2.27-.5,3.77,3.77,0,0,1,2.16.86C148,147.92,148.1,148.31,148,148.48Z" style="fill:#263238"></path><path d="M129.7,158.63a1.52,1.52,0,0,0,1.44,1.55,1.46,1.46,0,0,0,1.58-1.35,1.52,1.52,0,0,0-1.44-1.55A1.46,1.46,0,0,0,129.7,158.63Z" style="fill:#263238"></path><path d="M127,153.8c.18.2,1.34-.63,3-.61s2.81.86,3,.66-.1-.44-.61-.83a4.21,4.21,0,0,0-2.39-.77,3.92,3.92,0,0,0-2.37.73C127.11,153.36,126.94,153.71,127,153.8Z" style="fill:#263238"></path><path d="M127.5,147.82c.29.37,1.41,0,2.76,0s2.49.28,2.76-.1c.12-.19-.06-.56-.55-.92a4,4,0,0,0-4.45.08C127.54,147.25,127.38,147.63,127.5,147.82Z" style="fill:#263238"></path><path d="M151.91,165.43s-2.44,19.26-16.37,19-16.42-14.94-16.42-14.94l-9.87-3.84-2.68,21a14.32,14.32,0,0,0,3.71,11.56c3.8,4.11,9.16,9.51,12.73,11.52,8.5,4.8,20.44,3.34,25.94-4.72a34.31,34.31,0,0,0,4.39-9.57c.18-.77,3.88-15.41,3.88-15.41Z" style="fill:#455a64"></path><path d="M111.16,144.72c-1.64,8.84,0,26.72,9.94,33.48-1.61-3.54-2.46-11.92-2.56-15.76s.52-7.25,2-12.29c.6-2,2.6-7,4.48-8.17a22.64,22.64,0,0,1,9.2-2.58c3.8-.21,9.09.56,12.35,2.3,3.71,2,4.33,7.62,5.24,11.4s.65,7.7.39,11.57l2-13s-1.59-22.81-20.8-23.69c-15.46-.71-21.76,16.73-21.76,16.73Z" style="fill:#455a64"></path><path d="M151.91,198.67a1.64,1.64,0,0,0,.16-.36c.12-.3.25-.65.4-1,.35-.9.8-2.23,1.32-3.88a69,69,0,0,0,2.67-13.27,99,99,0,0,0,.29-13.53c-.08-1.73-.16-3.12-.24-4.09,0-.42-.06-.78-.09-1.11a2.21,2.21,0,0,0-.06-.39,1.81,1.81,0,0,0,0,.39c0,.33,0,.7,0,1.12,0,1.09.07,2.46.11,4.09a111.81,111.81,0,0,1-.39,13.49,76.26,76.26,0,0,1-2.55,13.22c-.49,1.66-.9,3-1.2,3.91l-.34,1.07C151.93,198.53,151.89,198.66,151.91,198.67Z" style="fill:#263238"></path><path d="M118.54,200.14a1.34,1.34,0,0,0,.36.22,12,12,0,0,0,1.1.5,13.32,13.32,0,0,0,4.35.88,16.59,16.59,0,0,0,6.5-1,21.65,21.65,0,0,0,6.85-4.27,34.61,34.61,0,0,0,5.23-6.13c1.43-2,2.64-3.91,3.56-5.54a30.92,30.92,0,0,0,1.95-4,11.77,11.77,0,0,0,.4-1.14,2.36,2.36,0,0,0,.11-.41s-.22.54-.64,1.49a37,37,0,0,1-2.05,3.91c-.95,1.61-2.17,3.46-3.61,5.47a36.24,36.24,0,0,1-5.2,6.06,21.68,21.68,0,0,1-6.72,4.21,16.66,16.66,0,0,1-6.37,1.11,14.43,14.43,0,0,1-4.31-.76C119.07,200.38,118.55,200.1,118.54,200.14Z" style="fill:#263238"></path><path d="M115.19,181.66a5.76,5.76,0,0,0,.52.79,17.24,17.24,0,0,0,1.69,2,20.57,20.57,0,0,0,2.95,2.44,21.49,21.49,0,0,0,8.67,3.47,19.82,19.82,0,0,0,3.82.27,16.14,16.14,0,0,0,2.57-.24,5,5,0,0,0,.92-.21c0-.08-1.34.19-3.49.19a22.55,22.55,0,0,1-15.25-6.11C116,182.72,115.26,181.61,115.19,181.66Z" style="fill:#263238"></path><path d="M114.42,176.28a3.44,3.44,0,0,0,.5.66c.34.41.86,1,1.52,1.67a52.75,52.75,0,0,0,5.55,4.95,51.75,51.75,0,0,0,6.2,4.12c.83.47,1.51.83,2,1a4.19,4.19,0,0,0,.76.33,3.18,3.18,0,0,0-.7-.46l-1.93-1.15a68.21,68.21,0,0,1-6.1-4.18,67.09,67.09,0,0,1-5.59-4.85l-1.6-1.58A5.93,5.93,0,0,0,114.42,176.28Z" style="fill:#263238"></path><path d="M107.42,168s0,.11,0,.32,0,.52,0,.91c0,.8.16,1.94.36,3.34.39,2.81,1.11,6.66,2.12,10.86A76.24,76.24,0,0,0,113.13,194a14.36,14.36,0,0,0,1.57,3,3.49,3.49,0,0,0,.63.67l.28.16a4.58,4.58,0,0,1-.79-.92,16.4,16.4,0,0,1-1.45-3,90.81,90.81,0,0,1-3.12-10.57c-1-4.19-1.77-8-2.23-10.81-.23-1.39-.39-2.52-.47-3.31S107.45,168,107.42,168Z" style="fill:#263238"></path><path d="M152.28,141a3.25,3.25,0,0,0,0,.82c0,.67.08,1.4.12,2.21.09,1.87.18,4.45.14,7.3s-.19,5.44-.36,7.3c-.08.8-.15,1.53-.22,2.2a2.76,2.76,0,0,0-.06.81,3.92,3.92,0,0,0,.2-.79c.1-.51.23-1.26.35-2.19a67.89,67.89,0,0,0,.46-7.32c0-2.87-.09-5.46-.24-7.33-.09-.93-.17-1.69-.25-2.21A3.66,3.66,0,0,0,152.28,141Z" style="fill:#263238"></path><path d="M115.79,164a1.33,1.33,0,0,0,0-.35c0-.31,0-.64-.08-1l-.33-3.69a73.18,73.18,0,0,1,0-12.19,42.64,42.64,0,0,1,1.13-6.61,15.24,15.24,0,0,1,2.29-4.91c.89-1.27,1.72-2.24,2.28-2.91l.64-.77c.15-.18.22-.28.21-.29s-.1.07-.26.24l-.7.72a33.25,33.25,0,0,0-2.39,2.86,15.25,15.25,0,0,0-2.41,5,41.12,41.12,0,0,0-1.16,6.66,63.94,63.94,0,0,0,.12,12.25c.15,1.56.32,2.82.44,3.69.06.37.11.7.16,1S115.77,164,115.79,164Z" style="fill:#263238"></path><path d="M111.39,157.19a7,7,0,0,0,.39,1.67,37.54,37.54,0,0,0,1.38,3.92,39.47,39.47,0,0,0,1.77,3.75,6.9,6.9,0,0,0,.9,1.46,8.29,8.29,0,0,0-.67-1.58c-.44-1-1-2.29-1.66-3.78s-1.11-2.85-1.47-3.85A8.64,8.64,0,0,0,111.39,157.19Z" style="fill:#263238"></path><g style="opacity:0.30000000000000004"><path d="M129.79,188.47l-.31.05,5.82,1.92a22.72,22.72,0,0,1-24.78-19.78A45.94,45.94,0,0,0,129.79,188.47Z"></path></g><g style="opacity:0.30000000000000004"><path d="M134.41,198.8c3.59-2.45,6.32-6,8.92-9.45,5.09-6.85,8.76-17.31,10.4-25.68.43,3.44,2,6.33-.22,13.2-1.65,4.85-3.32,9.75-5.91,14.17s-6.19,8.42-10.83,10.6S126.36,204,122,201.22C126.17,202.56,130.81,201.26,134.41,198.8Z"></path></g><path d="M138.9,171.93c0,.06-.43.25-1.2.24a4.6,4.6,0,0,1-4.37-3.52c-.17-.75-.08-1.23,0-1.22s.13.45.37,1.11a5.16,5.16,0,0,0,1.56,2.21,5.08,5.08,0,0,0,2.49,1.05C138.43,171.91,138.88,171.85,138.9,171.93Z" style="fill:#263238"></path></g><g id="freepik--speech-bubble-2--inject-5"><path d="M409.29,134.5c0,5.5,1.22,9.14,4.13,14.07.48.83-2.41,8.76-2.41,8.76l8.54-3c3.88,2.88,7.85,3.47,13.05,3.47a23.32,23.32,0,1,0-23.31-23.32Z" style="fill:#fff"></path><path d="M432.6,111.19H433l1.19,0c.26,0,.56,0,.88,0l1.06.15,1.22.17,1.38.34a22.51,22.51,0,0,1,6.65,2.9,23.55,23.55,0,0,1,10.79,17.65,24.63,24.63,0,0,1,.06,3.22c0,.55,0,1.1-.1,1.65s-.17,1.1-.25,1.65a23.65,23.65,0,0,1-2.24,6.55,25,25,0,0,1-4.28,5.89,24.52,24.52,0,0,1-6.16,4.42,22.35,22.35,0,0,1-7.51,2.31,14.85,14.85,0,0,1-2,.17,19.65,19.65,0,0,1-2,0,24.27,24.27,0,0,1-4.05-.52,23.64,23.64,0,0,1-8.08-3.39l.25,0-8.23,3.3-.49.2.14-.51,2.42-8.79,0,.22a23.6,23.6,0,0,1-4.39-10.05,22,22,0,0,1-.32-5.15,16.67,16.67,0,0,1,.24-2.47l.18-1.21c.08-.39.2-.78.29-1.16a23.53,23.53,0,0,1,9.18-13.38,22.64,22.64,0,0,1,5.46-2.88l1.23-.44,1.17-.3,1.07-.26c.34-.07.67-.1,1-.15.62-.08,1.17-.19,1.65-.21l1.2,0,.74,0h.25a1,1,0,0,1-.25,0l-.73,0-1.2.08c-.48,0-1,.16-1.63.25A23.4,23.4,0,0,0,410.08,129c-.09.38-.2.76-.27,1.15l-.18,1.18a16.14,16.14,0,0,0-.22,2.43,21.06,21.06,0,0,0,.33,5,23.09,23.09,0,0,0,4.33,9.83l.08.1,0,.12c-.77,2.84-1.57,5.78-2.4,8.8l-.34-.31,8.22-3.31.13-.05.11.07a23.17,23.17,0,0,0,11.86,3.82,16.29,16.29,0,0,0,2,0,14.13,14.13,0,0,0,2-.17,22,22,0,0,0,7.35-2.24,24.33,24.33,0,0,0,6-4.32,24.85,24.85,0,0,0,4.2-5.75,22.81,22.81,0,0,0,2.21-6.41c.09-.55.17-1.09.26-1.62s.07-1.08.11-1.62a25.54,25.54,0,0,0-.05-3.16,23.29,23.29,0,0,0-10.51-17.44,22.54,22.54,0,0,0-6.55-2.95l-1.35-.36-1.22-.2-1-.17c-.32,0-.61,0-.87-.06l-1.19-.09A1.91,1.91,0,0,1,432.6,111.19Z" style="fill:#263238"></path><polygon points="420.34 135.8 423.55 132.59 429.74 138.1 441.88 126.41 444.86 129.62 429.28 144.28 420.34 135.8" style="fill:#77FFC0"></polygon><path d="M429.28,144.32l0,0-9-8.5h0l3.23-3.23,6.18,5.5,12.15-11.69,0,0,3,3.23h0Zm-8.91-8.52,8.91,8.45,15.55-14.64-2.95-3.17-12.14,11.69-6.19-5.5Z" style="fill:#263238"></path></g><g id="freepik--speech-bubble-1--inject-5"><path d="M76.37,153.2c0,5.47-1.22,9.08-4.11,14-.48.82,2.39,8.71,2.39,8.71l-8.48-3c-3.86,2.86-7.8,3.44-13,3.44A23.17,23.17,0,1,1,76.37,153.2Z" style="fill:#fff"></path><path d="M59.58,153.31a2,2,0,1,0,2-2A2,2,0,0,0,59.58,153.31Z" style="fill:#263238"></path><path d="M51.62,153.31a2,2,0,1,0,2-2A2,2,0,0,0,51.62,153.31Z" style="fill:#263238"></path><path d="M43.69,152.31a2,2,0,1,0,2.71-.73A2,2,0,0,0,43.69,152.31Z" style="fill:#263238"></path><path d="M53.49,130.09a1.61,1.61,0,0,0-.41,0l-1.18,0c-.26,0-.55,0-.87,0l-1,.15-1.22.17-1.35.34a22,22,0,0,0-6.59,2.87,23.17,23.17,0,0,0-10.74,20.65c0,.54,0,1.09.11,1.63l.24,1.64a23.59,23.59,0,0,0,2.22,6.48A23.19,23.19,0,0,0,43,174.29a22.4,22.4,0,0,0,7.43,2.28,14.56,14.56,0,0,0,2,.17,19.26,19.26,0,0,0,2,0,22.8,22.8,0,0,0,4-.51,23.33,23.33,0,0,0,8-3.36l-.24,0,8.14,3.26.48.2-.14-.5-2.39-8.71,0,.22a23.24,23.24,0,0,0,4.34-10,20.43,20.43,0,0,0,.32-5.09,15.29,15.29,0,0,0-.23-2.45l-.18-1.19c-.08-.39-.2-.77-.29-1.15a23.24,23.24,0,0,0-9.08-13.24,22.2,22.2,0,0,0-5.41-2.85L60.48,131l-1.16-.29-1.06-.26c-.34-.07-.66-.1-1-.15-.62-.08-1.16-.18-1.63-.21l-1.2,0h-1l.24,0,.73.06,1.19.08c.47,0,1,.15,1.61.24a23.15,23.15,0,0,1,18.51,17.17c.09.38.21.75.28,1.14s.11.77.17,1.17a15.74,15.74,0,0,1,.22,2.4,21.13,21.13,0,0,1-.33,5,22.86,22.86,0,0,1-4.29,9.73l-.07.1,0,.12,2.38,8.7.34-.3-8.13-3.28-.13-.05-.12.07a22.75,22.75,0,0,1-11.73,3.78,16,16,0,0,1-2,0,15.7,15.7,0,0,1-1.94-.16,21.75,21.75,0,0,1-7.27-2.23,23.83,23.83,0,0,1-6-4.27,24.64,24.64,0,0,1-4.16-5.69,23.3,23.3,0,0,1-2.19-6.34c-.08-.54-.17-1.08-.25-1.61s-.07-1.07-.11-1.6a24.87,24.87,0,0,1,.05-3.12A23,23,0,0,1,41,133.93,21.92,21.92,0,0,1,47.47,131l1.34-.36,1.2-.2,1-.17.86-.06,1.18-.09Z" style="fill:#263238"></path></g></svg>